<svg height="511pt" viewBox="0 -24 511.99752 511" width="511pt" xmlns="http://www.w3.org/2000/svg"><path d="m482.867188 130.871094c-4.925782 0-9.570313 1.234375-13.644532 3.402344-7.707031-16.5-24.449218-27.964844-43.832031-27.964844h-42.941406c-5.796875 0-11.359375 1.027344-16.515625 2.90625l15.761718-51.617188c3.355469-11 2.230469-22.648437-3.171874-32.800781-5.402344-10.152344-14.433594-17.59375-25.433594-20.949219l-4.902344-1.5c-16.949219-5.171875-34.921875.847656-45.714844 13.789063-4.546875-3.597657-9.8125-6.265625-15.578125-7.8125-11.105469-2.976563-22.710937-1.449219-32.667969 4.304687l-7.96875 4.597656c-20.558593 11.871094-27.628906 38.257813-15.757812 58.816407l40.972656 70.96875c2.191406 3.796875 4.898438 7.175781 8.023438 10.074219-6.253906 4.058593-11.757813 9.472656-16.011719 16.160156l-34.214844 53.8125c-6.046875 9.511718-8.710937 20.214844-8.324219 30.707031-4.1875-1.183594-8.59375-1.832031-13.15625-1.832031h-34.035156c-8.324218 0-16.164062 2.113281-23.011718 5.832031-.464844-1.390625-1.007813-2.765625-1.644532-4.113281l-28.375-60.003906c-4.199218-8.878907-11.605468-15.59375-20.855468-18.90625-7.253907-2.59375-14.957032-2.839844-22.226563-.808594l-20.332031-42.699219c-2.378906-4.988281-8.347656-7.105469-13.335938-4.730469-4.988281 2.375-7.109375 8.34375-4.734375 13.332032l20.3125 42.664062c-6.164062 4.328125-10.847656 10.425781-13.4375 17.664062-3.308593 9.25-2.816406 19.234376 1.382813 28.113282l28.34375 59.945312c-.554688.128906-1.109375.253906-1.664063.402344-14.003906 3.753906-25.707031 12.734375-32.957031 25.289062l-33.957031 58.816407c-14.964844 25.917969-6.050781 59.179687 19.867187 74.144531l10.667969 6.160156c8.527344 4.925782 17.84375 7.261719 27.046875 7.261719 18.773438 0 37.058594-9.734375 47.097656-27.125l33.957032-58.816406c3.59375-6.222657 5.875-12.953125 6.808593-19.867188 6.367188 3.09375 13.507813 4.828125 21.046875 4.828125h34.035156c8.292969 0 16.109376-2.101562 22.941407-5.796875 1.082031 5.964844 3.179687 11.84375 6.382812 17.390625l33.957031 58.8125c10.042969 17.394532 28.324219 27.128906 47.09375 27.128906 9.203126 0 18.523438-2.339843 27.050782-7.261718l10.671875-6.160156c25.917969-14.964844 34.828125-48.226563 19.863281-74.144532l-33.957031-58.816406c-6.324219-10.957031-15.925781-18.859375-26.855469-23.21875 1.78125-2.035156 3.449219-4.214844 4.945312-6.566406l34.210938-53.8125c4.257812-6.691406 6.921875-14.078125 7.9375-21.710938 6.207031 2.902344 13.121094 4.535156 20.414062 4.535156h42.945313c19.378906 0 36.125-11.464843 43.832031-27.964843 4.070313 2.167969 8.714844 3.402343 13.644532 3.402343 16.0625 0 29.128906-13.070312 29.128906-29.132812s-13.0625-29.128906-29.128906-29.128906zm-140.523438-109.386719 4.902344 1.496094v.003906c5.886718 1.796875 10.722656 5.777344 13.613281 11.210937 2.890625 5.433594 3.492187 11.667969 1.695313 17.558594l-12.460938 40.808594-27.46875-47.570312-7.222656-12.511719c5.140625-9.359375 16.417968-14.207031 26.941406-10.996094zm-39.546875 126.257813c-5.949219-1.59375-10.917969-5.40625-13.996094-10.738282l-40.972656-70.96875c-6.355469-11.003906-2.570313-25.125 8.433594-31.480468l7.96875-4.597657c3.550781-2.050781 7.492187-3.097656 11.484375-3.097656 2.003906 0 4.019531.261719 6.003906.792969 5.921875 1.585937 10.875 5.378906 13.953125 10.679687.03125.050781.0625.101563.09375.15625l18.128906 31.394531 22.789063 39.472657c4.890625 8.648437 3.789062 19.742187-2.957032 27.097656-3.613281 3.941406-8.835937 6.363281-13.429687 8.980469-5.238281 2.976562-11.664063 3.875-17.5 2.308594zm-237.84375 63.164062c1.511719-4.21875 4.570313-7.59375 8.621094-9.507812l3.382812-1.601563c.003907 0 .003907 0 .007813-.003906.003906 0 .007812 0 .011718-.003907l3.332032-1.578124c2.308594-1.089844 4.742187-1.605469 7.140625-1.605469 6.285156 0 12.324219 3.546875 15.183593 9.597656l28.375 60.003906c1.914063 4.050781 2.140626 8.601563.628907 12.820313-1.507813 4.214844-4.566407 7.589844-8.617188 9.503906l-6.734375 3.1875c-8.355468 3.953125-18.371094.367188-22.324218-7.988281l-28.375-60.007813c-1.917969-4.050781-2.140626-8.601562-.632813-12.816406zm63.617187 157.441406-33.957031 58.816406c-9.449219 16.363282-30.449219 21.988282-46.808593 12.542969l-10.671876-6.160156c-16.363281-9.449219-21.988281-30.449219-12.542968-46.808594l33.957031-58.816406c4.578125-7.929687 11.964844-13.597656 20.808594-15.964844 8.835937-2.371093 18.074219-1.15625 26 3.421875l10.671875 6.160156c7.925781 4.578126 13.597656 11.964844 15.964844 20.808594 2.371093 8.839844 1.15625 18.074219-3.421876 26zm79.21875-25.042968h-34.035156c-15.628906 0-28.34375-12.714844-28.34375-28.34375v-10.675782c0-15.628906 12.714844-28.34375 28.34375-28.34375h34.035156c15.628907 0 28.34375 12.714844 28.34375 28.34375v10.675782c0 15.628906-12.714843 28.34375-28.34375 28.34375zm116.675782-18.832032 33.957031 58.816406c9.449219 16.363282 3.820313 37.363282-12.542969 46.808594l-10.671875 6.160156c-16.359375 9.449219-37.359375 3.820313-46.808593-12.539062l-33.953126-58.816406c-9.449218-16.363282-3.820312-37.363282 12.539063-46.808594l10.671875-6.160156c5.382812-3.109375 11.265625-4.585938 17.078125-4.585938 11.851563 0 23.390625 6.148438 29.730469 17.125zm12.746094-104.339844-34.210938 53.8125c-9.96875 15.671876-30.828125 20.316407-46.5 10.347657-15.667969-9.96875-20.3125-30.828125-10.34375-46.5l34.210938-53.8125c5.953124-9.355469 15.789062-14.773438 26.082031-15.503907.792969.042969 1.585937.078126 2.378906.078126.816406 0 1.628906-.03125 2.441406-.078126 5.375.386719 10.734375 2.070313 15.59375 5.160157 7.59375 4.828125 12.851563 12.324219 14.804688 21.105469 1.953125 8.785156.371093 17.800781-4.457031 25.390624zm116.527343-54.792968c0 15.628906-12.71875 28.34375-28.347656 28.34375h-42.941406c-15.628907 0-28.347657-12.714844-28.347657-28.34375v-10.675782c0-15.628906 12.71875-28.34375 28.347657-28.34375h42.941406c15.628906 0 28.347656 12.714844 28.347656 28.34375zm29.128907 3.78125c-5.027344 0-9.121094-4.089844-9.121094-9.121094 0-5.027344 4.09375-9.117188 9.121094-9.117188 5.03125 0 9.121093 4.089844 9.121093 9.117188 0 5.03125-4.089843 9.121094-9.121093 9.121094zm0 0" fill="#fff"/><path d="m21.792969 107.148438c1.621093 3.894531 5.652343 6.4375 9.875 6.164062 4.128906-.265625 7.722656-3.132812 8.933593-7.085938 1.226563-4-.265624-8.519531-3.660156-10.976562-3.269531-2.371094-7.746094-2.558594-11.183594-.425781-4.101562 2.550781-5.828124 7.859375-3.964843 12.324219zm0 0" fill="#fff"/></svg>