<svg xmlns="http://www.w3.org/2000/svg" width="29" height="23" viewBox="0 0 29 23">
  <defs>
    <style>
      .cls-1 {
        fill: #6b0769;
        fill-rule: evenodd;
      }
    </style>
  </defs>
  <path class="cls-1" d="M1114.16,17048h-21.32a3.82,3.82,0,0,0-3.84,3.8v15.4a3.82,3.82,0,0,0,3.84,3.8h21.32a3.82,3.82,0,0,0,3.84-3.8v-15.4A3.82,3.82,0,0,0,1114.16,17048Zm-21.32,1.1h21.32a2.7,2.7,0,0,1,2.07,1l-10.38,10.1a3.163,3.163,0,0,1-4.42,0l-10.52-10.3A2.679,2.679,0,0,1,1092.84,17049.1Zm24.02,18.1a2.571,2.571,0,0,1-.34,1.3l-7.59-7.4a0.3,0.3,0,0,0-.4,0,0.284,0.284,0,0,0,0,.4l7.66,7.5a2.928,2.928,0,0,1-2.03.9h-21.32a2.909,2.909,0,0,1-2.03-.9l7.66-7.5a0.284,0.284,0,0,0,0-.4,0.3,0.3,0,0,0-.4,0l-7.6,7.4a2.669,2.669,0,0,1-.33-1.3v-15.4a2.369,2.369,0,0,1,.41-1.4l10.48,10.2a3.658,3.658,0,0,0,5.23,0l10.29-10.1a2.773,2.773,0,0,1,.31,1.3v15.4Z" transform="translate(-1089 -17048)"/>
</svg>
