<svg xmlns="http://www.w3.org/2000/svg" width="29" height="31" viewBox="0 0 29 31">
  <defs>
    <style>
      .cls-1 {
        fill: #6b0769;
        fill-rule: evenodd;
      }
    </style>
  </defs>
  <path class="cls-1" d="M1111.93,16921.4l-3.21-1.2-1.32-1.5a13.466,13.466,0,0,0,2.22-7.7c0-4.3-2.38-7-6.07-7s-6.07,2.7-6.07,7a13.257,13.257,0,0,0,2.15,7.6c0,0.1-.01.1-0.02,0.1l-1.33,1.5-3.21,1.2c-0.49.2-6.07,2.1-6.07,12.1a0.624,0.624,0,0,0,.61.6h4.14v0.3a0.624,0.624,0,0,0,.61.6h18.29a0.622,0.622,0,0,0,.6-0.6v-0.3h4.14a0.624,0.624,0,0,0,.61-0.6C1118,16923.5,1112.42,16921.6,1111.93,16921.4Zm-13.23-10.4c0-3.6,1.86-5.8,4.85-5.8s4.85,2.2,4.85,5.8c0,4.1-1.85,8.6-4.85,8.6S1098.7,16915.1,1098.7,16911Zm14.55,21.9v-5.1a0.605,0.605,0,0,0-1.21,0v6h-17.08v-6a0.605,0.605,0,0,0-1.21,0v5.1h-3.53c0.22-8.7,5-10.3,5.21-10.3h0.04l3.38-1.3a0.368,0.368,0,0,0,.25-0.2l1.34-1.5a4.409,4.409,0,0,0,3.11,1.2,4.287,4.287,0,0,0,3.03-1.2l1.32,1.5a0.368,0.368,0,0,0,.25.2l3.38,1.3h0.04c0.06,0,4.99,1.5,5.21,10.3h-3.53Z" transform="translate(-1089 -16904)"/>
</svg>
