<svg xmlns="http://www.w3.org/2000/svg" width="31.969" height="32.031" viewBox="0 0 31.969 32.031">
  <defs>
    <style>
      .cls-1 {
        fill: #f68500;
        fill-rule: evenodd;
      }
    </style>
  </defs>
  <path id="Shape_23_copy" data-name="Shape 23 copy" class="cls-1" d="M857,597.795c-0.044-3.669-1.015-7.356-3.534-9.872a17.4,17.4,0,0,0-8.685-4.324,25.537,25.537,0,0,0-10.664-.081,24.874,24.874,0,0,0-2.545.668,1.158,1.158,0,0,0-.7,1.375,1.045,1.045,0,0,0,.036.116,17.963,17.963,0,0,0-5.824,14.556,17.171,17.171,0,0,0,3.377,8.983,14.609,14.609,0,0,0,8.166,5.117,18.215,18.215,0,0,0,10.5-.214,13.947,13.947,0,0,0,7.539-6.311A20.145,20.145,0,0,0,857,597.795Zm-3.1,6.789a12.128,12.128,0,0,1-5.508,6.572,14.741,14.741,0,0,1-8.993,1.453,17.966,17.966,0,0,1-4.455-1.147,12.394,12.394,0,0,1-3.651-2.266,13.566,13.566,0,0,1-3.9-7.066,14.7,14.7,0,0,1-.332-4.245,12.334,12.334,0,0,1,.281-2.033,16.836,16.836,0,0,1,.6-2.132,16,16,0,0,1,4.511-6.576,14.852,14.852,0,0,1,1.688-1.232,1.089,1.089,0,0,0,.2-0.165,23.7,23.7,0,0,1,7.443-.395,19.617,19.617,0,0,1,8.461,2.737,9.751,9.751,0,0,1,2.961,2.82,11.323,11.323,0,0,1,1.6,4.5A19.091,19.091,0,0,1,853.9,604.584Zm-5.636-6.464c-0.723-.538-1.452-1.06-2.178-1.59l-4.548-3.317c-0.783-.572-1.439,1.116-0.685,1.877l3.687,3.724-12.463-.806c-0.874-.056-0.873,2.118,0,2.174l13.353,0.864-0.641.291-3.853,1.748c-0.84.381-.483,2.479,0.361,2.1l4.644-2.107c0.727-.33,1.479-0.6,2.193-1a2.159,2.159,0,0,0,1.122-1.874A2.334,2.334,0,0,0,848.265,598.12Z" transform="translate(-825.031 -582.969)"/>
</svg>
