<svg xmlns="http://www.w3.org/2000/svg" xmlns:xlink="http://www.w3.org/1999/xlink" width="228" height="261" viewBox="0 0 228 261"><defs><path id="8peqa" d="M1751.444 712.238c-1.27-.317-2.222-.317-3.492 0 0 2.222-.317 3.81-.952 6.032.952 0 1.587 0 1.905.317.635-2.54 1.27-3.81 2.54-6.349z"/><path id="8peqb" d="M1799.698 934.571c-4.127-1.27-7.619-3.492-10.476-8.571-10.159 10.476-15.238 18.413-22.222 30.476 5.08 6.667 9.524 9.207 12.698 10.794 4.445-14.286 10.16-21.905 20-32.699z"/><path id="8peqc" d="M1647.238 871.825c6.032-3.174 8.889-8.571 10.794-17.777-14.286-5.08-21.905-9.524-32.699-19.048-1.904 6.667-5.396 10.476-13.333 17.143 10.794 9.524 20.952 14.603 35.238 19.682z"/><path id="8peqd" d="M1674 748.444c5.714 4.762 8.571 7.62 10.794 13.651 2.54-1.587 4.127-2.222 6.031-1.905-2.222-6.666-5.079-10.476-10.793-16.19-2.222.635-4.445 2.222-6.032 4.444z"/><path id="8peqe" d="M1732 718.54c0 .635.317.952.635 1.587 1.27-.952 3.175-1.905 5.08-2.54-.318-.635-.318-.952-.318-1.587-2.222.952-3.492 1.27-5.397 2.54z"/><path id="8peqf" d="M1581 747.254c2.54 8.889 4.762 13.65 13.333 19.048 13.651-7.62 22.223-11.112 37.143-15.556-3.492-4.444-4.762-8.254-5.397-11.746-16.508 5.714-27.619 6.984-45.079 8.254z"/><path id="8peqg" d="M1688 732.317c.317 1.27.317 2.223 1.587 3.175 2.223-.952 3.492-1.27 5.715-1.587-.318-.635-.635-1.27-.635-1.905-2.54.635-4.127.635-6.667.317z"/><path id="8peqh" d="M1765.62 755c-3.176 0-5.398.317-7.62 1.587 0 1.905.317 3.175.952 4.762 2.858-1.27 4.445-1.587 7.62-1.587-1.27-1.905-1.588-3.175-.953-4.762z"/><path id="8peqi" d="M1732.794 726c-.635 1.905-.635 2.857-.635 4.444 1.27 0 1.904-.317 2.54-.634-.318-.953 0-1.588.317-2.858-.953 0-1.587-.317-2.222-.952z"/><path id="8peqj" d="M1784 732.762c6.35 6.984 9.206 11.111 11.111 18.73 3.492-1.587 5.714-2.222 7.937-1.587-1.588-8.572-4.445-13.968-10.477-21.905-3.492.952-6.031 2.54-8.571 4.762z"/><mask id="8peql" width="2" height="2" x="-1" y="-1"><path fill="#fff" d="M1747 712h5v7h-5z"/><use xlink:href="#8peqa"/></mask><filter id="8peqk" width="33" height="37" x="1733" y="698" filterUnits="userSpaceOnUse"><feOffset dy="2" in="SourceGraphic" result="FeOffset1427Out"/><feGaussianBlur in="FeOffset1427Out" result="FeGaussianBlur1428Out" stdDeviation="1.6 1.6"/></filter><linearGradient id="8peqm" x1="1747.39" x2="1751.19" y1="715.07" y2="715.55" gradientUnits="userSpaceOnUse"><stop offset="0" stop-color="#0038ab"/><stop offset=".11" stop-color="#0062c9"/><stop offset=".27" stop-color="#0097f0"/><stop offset=".35" stop-color="#00acff"/><stop offset=".4" stop-color="#00bfff"/><stop offset=".47" stop-color="#00d2ff"/><stop offset=".52" stop-color="#00d9ff"/><stop offset=".66" stop-color="#00b8ff"/><stop offset=".71" stop-color="#00acff"/><stop offset=".76" stop-color="#00a2f8"/><stop offset=".83" stop-color="#0086e3"/><stop offset=".93" stop-color="#0059c3"/><stop offset="1" stop-color="#0038ab"/></linearGradient><mask id="8peqo" width="2" height="2" x="-1" y="-1"><path fill="#fff" d="M1767 926h33v42h-33z"/><use xlink:href="#8peqb"/></mask><filter id="8peqn" width="61" height="72" x="1753" y="912" filterUnits="userSpaceOnUse"><feOffset dy="2" in="SourceGraphic" result="FeOffset1457Out"/><feGaussianBlur in="FeOffset1457Out" result="FeGaussianBlur1458Out" stdDeviation="1.6 1.6"/></filter><linearGradient id="8peqp" x1="1790.99" x2="1772.45" y1="951.23" y2="938.81" gradientUnits="userSpaceOnUse"><stop offset="0" stop-color="#0038ab"/><stop offset=".11" stop-color="#0062c9"/><stop offset=".27" stop-color="#0097f0"/><stop offset=".35" stop-color="#00acff"/><stop offset=".4" stop-color="#00bfff"/><stop offset=".47" stop-color="#00d2ff"/><stop offset=".52" stop-color="#00d9ff"/><stop offset=".66" stop-color="#00b8ff"/><stop offset=".71" stop-color="#00acff"/><stop offset=".76" stop-color="#00a2f8"/><stop offset=".83" stop-color="#0086e3"/><stop offset=".93" stop-color="#0059c3"/><stop offset="1" stop-color="#0038ab"/></linearGradient><mask id="8peqr" width="2" height="2" x="-1" y="-1"><path fill="#fff" d="M1612 835h46v37h-46z"/><use xlink:href="#8peqc"/></mask><filter id="8peqq" width="74" height="67" x="1598" y="821" filterUnits="userSpaceOnUse"><feOffset dy="2" in="SourceGraphic" result="FeOffset1487Out"/><feGaussianBlur in="FeOffset1487Out" result="FeGaussianBlur1488Out" stdDeviation="1.6 1.6"/></filter><linearGradient id="8peqs" x1="1643.1" x2="1627.37" y1="840.46" y2="868.51" gradientUnits="userSpaceOnUse"><stop offset="0" stop-color="#0038ab"/><stop offset=".11" stop-color="#0062c9"/><stop offset=".27" stop-color="#0097f0"/><stop offset=".35" stop-color="#00acff"/><stop offset=".4" stop-color="#00bfff"/><stop offset=".47" stop-color="#00d2ff"/><stop offset=".52" stop-color="#00d9ff"/><stop offset=".66" stop-color="#00b8ff"/><stop offset=".71" stop-color="#00acff"/><stop offset=".76" stop-color="#00a2f8"/><stop offset=".83" stop-color="#0086e3"/><stop offset=".93" stop-color="#0059c3"/><stop offset="1" stop-color="#0038ab"/></linearGradient><mask id="8pequ" width="2" height="2" x="-1" y="-1"><path fill="#fff" d="M1674 744h17v19h-17z"/><use xlink:href="#8peqd"/></mask><filter id="8peqt" width="45" height="49" x="1660" y="730" filterUnits="userSpaceOnUse"><feOffset dy="2" in="SourceGraphic" result="FeOffset1517Out"/><feGaussianBlur in="FeOffset1517Out" result="FeGaussianBlur1518Out" stdDeviation="1.6 1.6"/></filter><linearGradient id="8peqv" x1="1687.92" x2="1677.58" y1="749.7" y2="757.58" gradientUnits="userSpaceOnUse"><stop offset="0" stop-color="#400300"/><stop offset=".07" stop-color="#750300"/><stop offset=".14" stop-color="#a50300"/><stop offset=".21" stop-color="#c80300"/><stop offset=".26" stop-color="#dd0300"/><stop offset=".3" stop-color="#e50300"/><stop offset=".34" stop-color="#ee190c"/><stop offset=".39" stop-color="#f82e18"/><stop offset=".45" stop-color="#fd3c20"/><stop offset=".49" stop-color="#ff4022"/><stop offset=".54" stop-color="#fd3b1f"/><stop offset=".6" stop-color="#f72e18"/><stop offset=".66" stop-color="#ee180c"/><stop offset=".7" stop-color="#e50300"/><stop offset=".73" stop-color="#db0300"/><stop offset=".79" stop-color="#c20300"/><stop offset=".87" stop-color="#980300"/><stop offset=".95" stop-color="#5e0300"/><stop offset="1" stop-color="#3b0300"/></linearGradient><mask id="8peqx" width="2" height="2" x="-1" y="-1"><path fill="#fff" d="M1732 716h6v5h-6z"/><use xlink:href="#8peqe"/></mask><filter id="8peqw" width="34" height="35" x="1718" y="702" filterUnits="userSpaceOnUse"><feOffset dy="2" in="SourceGraphic" result="FeOffset1553Out"/><feGaussianBlur in="FeOffset1553Out" result="FeGaussianBlur1554Out" stdDeviation="1.6 1.6"/></filter><linearGradient id="8peqy" x1="1734.39" x2="1735.28" y1="716.64" y2="719.48" gradientUnits="userSpaceOnUse"><stop offset="0" stop-color="#005200"/><stop offset=".19" stop-color="#00890b"/><stop offset=".31" stop-color="#00a912"/><stop offset=".33" stop-color="#11ad12"/><stop offset=".37" stop-color="#3ab512"/><stop offset=".41" stop-color="#5abc12"/><stop offset=".44" stop-color="#71c112"/><stop offset=".48" stop-color="#7ec412"/><stop offset=".51" stop-color="#83c512"/><stop offset=".55" stop-color="#7fc412"/><stop offset=".59" stop-color="#72c112"/><stop offset=".63" stop-color="#5ebd12"/><stop offset=".67" stop-color="#41b712"/><stop offset=".72" stop-color="#1caf12"/><stop offset=".74" stop-color="#00a912"/><stop offset=".78" stop-color="#009e10"/><stop offset=".86" stop-color="#00800c"/><stop offset=".95" stop-color="#005004"/><stop offset="1" stop-color="#003400"/></linearGradient><mask id="8peqA" width="2" height="2" x="-1" y="-1"><path fill="#fff" d="M1581 739h51v28h-51z"/><use xlink:href="#8peqf"/></mask><filter id="8peqz" width="79" height="58" x="1567" y="725" filterUnits="userSpaceOnUse"><feOffset dy="2" in="SourceGraphic" result="FeOffset1589Out"/><feGaussianBlur in="FeOffset1589Out" result="FeGaussianBlur1590Out" stdDeviation="1.6 1.6"/></filter><linearGradient id="8peqB" x1="1611.66" x2="1600.69" y1="761.07" y2="737.78" gradientUnits="userSpaceOnUse"><stop offset="0" stop-color="#ab3c00"/><stop offset=".34" stop-color="#ffc700"/><stop offset=".37" stop-color="#ffcd17"/><stop offset=".41" stop-color="#ffd533"/><stop offset=".44" stop-color="#ffda46"/><stop offset=".48" stop-color="#ffdd52"/><stop offset=".52" stop-color="#ffde56"/><stop offset=".55" stop-color="#ffdd51"/><stop offset=".59" stop-color="#ffd943"/><stop offset=".62" stop-color="#ffd32b"/><stop offset=".66" stop-color="#ffca0b"/><stop offset=".67" stop-color="#ffc700"/><stop offset="1" stop-color="#ab3c00"/></linearGradient><mask id="8peqD" width="2" height="2" x="-1" y="-1"><path fill="#fff" d="M1688 732h8v4h-8z"/><use xlink:href="#8peqg"/></mask><filter id="8peqC" width="36" height="34" x="1674" y="718" filterUnits="userSpaceOnUse"><feOffset dy="2" in="SourceGraphic" result="FeOffset1619Out"/><feGaussianBlur in="FeOffset1619Out" result="FeGaussianBlur1620Out" stdDeviation="1.6 1.6"/></filter><linearGradient id="8peqE" x1="1692.04" x2="1690.92" y1="734.99" y2="731.38" gradientUnits="userSpaceOnUse"><stop offset="0" stop-color="#400300"/><stop offset=".07" stop-color="#750300"/><stop offset=".14" stop-color="#a50300"/><stop offset=".21" stop-color="#c80300"/><stop offset=".26" stop-color="#dd0300"/><stop offset=".3" stop-color="#e50300"/><stop offset=".34" stop-color="#ee190c"/><stop offset=".39" stop-color="#f82e18"/><stop offset=".45" stop-color="#fd3c20"/><stop offset=".49" stop-color="#ff4022"/><stop offset=".54" stop-color="#fd3b1f"/><stop offset=".6" stop-color="#f72e18"/><stop offset=".66" stop-color="#ee180c"/><stop offset=".7" stop-color="#e50300"/><stop offset=".73" stop-color="#db0300"/><stop offset=".79" stop-color="#c20300"/><stop offset=".87" stop-color="#980300"/><stop offset=".95" stop-color="#5e0300"/><stop offset="1" stop-color="#3b0300"/></linearGradient><mask id="8peqG" width="2" height="2" x="-1" y="-1"><path fill="#fff" d="M1758 755h9v7h-9z"/><use xlink:href="#8peqh"/></mask><filter id="8peqF" width="37" height="37" x="1744" y="741" filterUnits="userSpaceOnUse"><feOffset dy="2" in="SourceGraphic" result="FeOffset1655Out"/><feGaussianBlur in="FeOffset1655Out" result="FeGaussianBlur1656Out" stdDeviation="1.6 1.6"/></filter><linearGradient id="8peqH" x1="1761.4" x2="1762.68" y1="755.25" y2="760.59" gradientUnits="userSpaceOnUse"><stop offset="0" stop-color="#920040"/><stop offset=".05" stop-color="#ae0052"/><stop offset=".12" stop-color="#d10069"/><stop offset=".19" stop-color="#ea007a"/><stop offset=".25" stop-color="#fa0084"/><stop offset=".3" stop-color="#ff0087"/><stop offset=".35" stop-color="#ff1a8b"/><stop offset=".43" stop-color="#ff3f92"/><stop offset=".5" stop-color="#ff5696"/><stop offset=".55" stop-color="#ff5e97"/><stop offset=".58" stop-color="#ff5696"/><stop offset=".64" stop-color="#ff3f92"/><stop offset=".71" stop-color="#ff198b"/><stop offset=".75" stop-color="#ff0087"/><stop offset=".79" stop-color="#fa0084"/><stop offset=".84" stop-color="#ea007a"/><stop offset=".9" stop-color="#d10069"/><stop offset=".96" stop-color="#ae0053"/><stop offset="1" stop-color="#920040"/></linearGradient><mask id="8peqJ" width="2" height="2" x="-1" y="-1"><path fill="#fff" d="M1732 726h3v5h-3z"/><use xlink:href="#8peqi"/></mask><filter id="8peqI" width="31" height="35" x="1718" y="712" filterUnits="userSpaceOnUse"><feOffset dy="2" in="SourceGraphic" result="FeOffset1691Out"/><feGaussianBlur in="FeOffset1691Out" result="FeGaussianBlur1692Out" stdDeviation="1.6 1.6"/></filter><linearGradient id="8peqK" x1="1731.84" x2="1735.12" y1="728.15" y2="728.43" gradientUnits="userSpaceOnUse"><stop offset="0" stop-color="#0038ab"/><stop offset=".11" stop-color="#0062c9"/><stop offset=".27" stop-color="#0097f0"/><stop offset=".35" stop-color="#00acff"/><stop offset=".4" stop-color="#00bfff"/><stop offset=".47" stop-color="#00d2ff"/><stop offset=".52" stop-color="#00d9ff"/><stop offset=".66" stop-color="#00b8ff"/><stop offset=".71" stop-color="#00acff"/><stop offset=".76" stop-color="#00a2f8"/><stop offset=".83" stop-color="#0086e3"/><stop offset=".93" stop-color="#0059c3"/><stop offset="1" stop-color="#0038ab"/></linearGradient><mask id="8peqM" width="2" height="2" x="-1" y="-1"><path fill="#fff" d="M1784 728h19v24h-19z"/><use xlink:href="#8peqj"/></mask><filter id="8peqL" width="47" height="54" x="1770" y="714" filterUnits="userSpaceOnUse"><feOffset dy="2" in="SourceGraphic" result="FeOffset1721Out"/><feGaussianBlur in="FeOffset1721Out" result="FeGaussianBlur1722Out" stdDeviation="1.6 1.6"/></filter><linearGradient id="8peqN" x1="1800.96" x2="1786.73" y1="737.06" y2="745.06" gradientUnits="userSpaceOnUse"><stop offset="0" stop-color="#920040"/><stop offset=".05" stop-color="#ae0052"/><stop offset=".12" stop-color="#d10069"/><stop offset=".19" stop-color="#ea007a"/><stop offset=".25" stop-color="#fa0084"/><stop offset=".3" stop-color="#ff0087"/><stop offset=".35" stop-color="#ff1a8b"/><stop offset=".43" stop-color="#ff3f92"/><stop offset=".5" stop-color="#ff5696"/><stop offset=".55" stop-color="#ff5e97"/><stop offset=".58" stop-color="#ff5696"/><stop offset=".64" stop-color="#ff3f92"/><stop offset=".71" stop-color="#ff198b"/><stop offset=".75" stop-color="#ff0087"/><stop offset=".79" stop-color="#fa0084"/><stop offset=".84" stop-color="#ea007a"/><stop offset=".9" stop-color="#d10069"/><stop offset=".96" stop-color="#ae0053"/><stop offset="1" stop-color="#920040"/></linearGradient></defs><g><g transform="translate(-1578 -711)"><g filter="url(#8peqk)"><use fill="none" stroke-opacity=".3" stroke-width="0" mask="url(&quot;#8peql&quot;)" xlink:href="#8peqa"/><use fill-opacity=".3" xlink:href="#8peqa"/></g><use fill="url(#8peqm)" xlink:href="#8peqa"/></g><g transform="translate(-1578 -711)"><g filter="url(#8peqn)"><use fill="none" stroke-opacity=".3" stroke-width="0" mask="url(&quot;#8peqo&quot;)" xlink:href="#8peqb"/><use fill-opacity=".3" xlink:href="#8peqb"/></g><use fill="url(#8peqp)" xlink:href="#8peqb"/></g><g transform="translate(-1578 -711)"><g filter="url(#8peqq)"><use fill="none" stroke-opacity=".3" stroke-width="0" mask="url(&quot;#8peqr&quot;)" xlink:href="#8peqc"/><use fill-opacity=".3" xlink:href="#8peqc"/></g><use fill="url(#8peqs)" xlink:href="#8peqc"/></g><g transform="translate(-1578 -711)"><g filter="url(#8peqt)"><use fill="none" stroke-opacity=".3" stroke-width="0" mask="url(&quot;#8pequ&quot;)" xlink:href="#8peqd"/><use fill-opacity=".3" xlink:href="#8peqd"/></g><use fill="url(#8peqv)" xlink:href="#8peqd"/></g><g transform="translate(-1578 -711)"><g filter="url(#8peqw)"><use fill="none" stroke-opacity=".3" stroke-width="0" mask="url(&quot;#8peqx&quot;)" xlink:href="#8peqe"/><use fill-opacity=".3" xlink:href="#8peqe"/></g><use fill="url(#8peqy)" xlink:href="#8peqe"/></g><g transform="translate(-1578 -711)"><g filter="url(#8peqz)"><use fill="none" stroke-opacity=".3" stroke-width="0" mask="url(&quot;#8peqA&quot;)" xlink:href="#8peqf"/><use fill-opacity=".3" xlink:href="#8peqf"/></g><use fill="url(#8peqB)" xlink:href="#8peqf"/></g><g transform="translate(-1578 -711)"><g filter="url(#8peqC)"><use fill="none" stroke-opacity=".3" stroke-width="0" mask="url(&quot;#8peqD&quot;)" xlink:href="#8peqg"/><use fill-opacity=".3" xlink:href="#8peqg"/></g><use fill="url(#8peqE)" xlink:href="#8peqg"/></g><g transform="translate(-1578 -711)"><g filter="url(#8peqF)"><use fill="none" stroke-opacity=".3" stroke-width="0" mask="url(&quot;#8peqG&quot;)" xlink:href="#8peqh"/><use fill-opacity=".3" xlink:href="#8peqh"/></g><use fill="url(#8peqH)" xlink:href="#8peqh"/></g><g transform="translate(-1578 -711)"><g filter="url(#8peqI)"><use fill="none" stroke-opacity=".3" stroke-width="0" mask="url(&quot;#8peqJ&quot;)" xlink:href="#8peqi"/><use fill-opacity=".3" xlink:href="#8peqi"/></g><use fill="url(#8peqK)" xlink:href="#8peqi"/></g><g transform="translate(-1578 -711)"><g filter="url(#8peqL)"><use fill="none" stroke-opacity=".3" stroke-width="0" mask="url(&quot;#8peqM&quot;)" xlink:href="#8peqj"/><use fill-opacity=".3" xlink:href="#8peqj"/></g><use fill="url(#8peqN)" xlink:href="#8peqj"/></g></g></svg>