<svg xmlns="http://www.w3.org/2000/svg" xmlns:xlink="http://www.w3.org/1999/xlink" width="135" height="123" viewBox="0 0 135 123"><defs><path id="q2eca" d="M269.524 483c-4.445 1.587-6.667 3.492-9.524 7.619 5.08 2.857 7.302 5.714 9.206 9.206 4.127-1.27 6.667-2.857 10.477-5.714-4.762-3.174-6.985-6.032-10.16-11.111z"/><path id="q2ecb" d="M319.655 509.277c-5.08-3.492-9.206-4.127-15.873-2.222-2.54 6.032-3.492 10.794-2.222 15.556 6.667 2.222 10.476 5.397 16.508 11.746-.952-9.207-.952-15.238 1.587-25.08z"/><path id="q2ecc" d="M215.762 437c-6.35-9.206-11.111-14.286-18.73-20-4.127 6.032-5.715 10.794-6.032 15.556 5.397 2.54 7.937 6.031 11.746 12.063 4.127-5.08 7.302-6.667 13.016-7.619z"/><mask id="q2ece" width="2" height="2" x="-1" y="-1"><path fill="#fff" d="M260 483h20v17h-20z"/><use xlink:href="#q2eca"/></mask><filter id="q2ecd" width="48" height="47" x="246" y="469" filterUnits="userSpaceOnUse"><feOffset dy="2" in="SourceGraphic" result="FeOffset1321Out"/><feGaussianBlur in="FeOffset1321Out" result="FeGaussianBlur1322Out" stdDeviation="1.6 1.6"/></filter><linearGradient id="q2ecf" x1="274.01" x2="263.1" y1="488.1" y2="497.47" gradientUnits="userSpaceOnUse"><stop offset="0" stop-color="#920040"/><stop offset=".05" stop-color="#ae0052"/><stop offset=".12" stop-color="#d10069"/><stop offset=".19" stop-color="#ea007a"/><stop offset=".25" stop-color="#fa0084"/><stop offset=".3" stop-color="#ff0087"/><stop offset=".35" stop-color="#ff1a8b"/><stop offset=".43" stop-color="#ff3f92"/><stop offset=".5" stop-color="#ff5696"/><stop offset=".55" stop-color="#ff5e97"/><stop offset=".58" stop-color="#ff5696"/><stop offset=".64" stop-color="#ff3f92"/><stop offset=".71" stop-color="#ff198b"/><stop offset=".75" stop-color="#ff0087"/><stop offset=".79" stop-color="#fa0084"/><stop offset=".84" stop-color="#ea007a"/><stop offset=".9" stop-color="#d10069"/><stop offset=".96" stop-color="#ae0053"/><stop offset="1" stop-color="#920040"/></linearGradient><mask id="q2ech" width="2" height="2" x="-1" y="-1"><path fill="#fff" d="M301 506h19v29h-19z"/><use xlink:href="#q2ecb"/></mask><filter id="q2ecg" width="47" height="59" x="287" y="492" filterUnits="userSpaceOnUse"><feOffset dy="2" in="SourceGraphic" result="FeOffset1357Out"/><feGaussianBlur in="FeOffset1357Out" result="FeGaussianBlur1358Out" stdDeviation="1.6 1.6"/></filter><linearGradient id="q2eci" x1="320.26" x2="297.44" y1="521.07" y2="518.34" gradientUnits="userSpaceOnUse"><stop offset="0" stop-color="#ab3c00"/><stop offset=".34" stop-color="#ffc700"/><stop offset=".37" stop-color="#ffcd17"/><stop offset=".41" stop-color="#ffd533"/><stop offset=".44" stop-color="#ffda46"/><stop offset=".48" stop-color="#ffdd52"/><stop offset=".52" stop-color="#ffde56"/><stop offset=".55" stop-color="#ffdd51"/><stop offset=".59" stop-color="#ffd943"/><stop offset=".62" stop-color="#ffd32b"/><stop offset=".66" stop-color="#ffca0b"/><stop offset=".67" stop-color="#ffc700"/><stop offset="1" stop-color="#ab3c00"/></linearGradient><mask id="q2eck" width="2" height="2" x="-1" y="-1"><path fill="#fff" d="M191 417h25v28h-25z"/><use xlink:href="#q2ecc"/></mask><filter id="q2ecj" width="53" height="58" x="177" y="403" filterUnits="userSpaceOnUse"><feOffset dy="2" in="SourceGraphic" result="FeOffset1387Out"/><feGaussianBlur in="FeOffset1387Out" result="FeGaussianBlur1388Out" stdDeviation="1.6 1.6"/></filter><linearGradient id="q2ecl" x1="209.22" x2="195.78" y1="424.22" y2="438.79" gradientUnits="userSpaceOnUse"><stop offset="0" stop-color="#400300"/><stop offset=".07" stop-color="#750300"/><stop offset=".14" stop-color="#a50300"/><stop offset=".21" stop-color="#c80300"/><stop offset=".26" stop-color="#dd0300"/><stop offset=".3" stop-color="#e50300"/><stop offset=".34" stop-color="#ee190c"/><stop offset=".39" stop-color="#f82e18"/><stop offset=".45" stop-color="#fd3c20"/><stop offset=".49" stop-color="#ff4022"/><stop offset=".54" stop-color="#fd3b1f"/><stop offset=".6" stop-color="#f72e18"/><stop offset=".66" stop-color="#ee180c"/><stop offset=".7" stop-color="#e50300"/><stop offset=".73" stop-color="#db0300"/><stop offset=".79" stop-color="#c20300"/><stop offset=".87" stop-color="#980300"/><stop offset=".95" stop-color="#5e0300"/><stop offset="1" stop-color="#3b0300"/></linearGradient></defs><g><g transform="translate(-188 -416)"><g filter="url(#q2ecd)"><use fill="none" stroke-opacity=".3" stroke-width="0" mask="url(&quot;#q2ece&quot;)" xlink:href="#q2eca"/><use fill-opacity=".3" xlink:href="#q2eca"/></g><use fill="url(#q2ecf)" xlink:href="#q2eca"/></g><g transform="translate(-188 -416)"><g filter="url(#q2ecg)"><use fill="none" stroke-opacity=".3" stroke-width="0" mask="url(&quot;#q2ech&quot;)" xlink:href="#q2ecb"/><use fill-opacity=".3" xlink:href="#q2ecb"/></g><use fill="url(#q2eci)" xlink:href="#q2ecb"/></g><g transform="translate(-188 -416)"><g filter="url(#q2ecj)"><use fill="none" stroke-opacity=".3" stroke-width="0" mask="url(&quot;#q2eck&quot;)" xlink:href="#q2ecc"/><use fill-opacity=".3" xlink:href="#q2ecc"/></g><use fill="url(#q2ecl)" xlink:href="#q2ecc"/></g></g></svg>