<svg xmlns="http://www.w3.org/2000/svg" xmlns:xlink="http://www.w3.org/1999/xlink" width="166" height="50" viewBox="0 0 166 50"><defs><path id="ug5ya" d="M1843 528.587c7.619 6.667 9.524 12.699 11.429 22.223 13.015-9.842 25.079-21.27 28.888-27.937-4.444-6.35-9.84-10.794-17.777-15.873-4.127 7.302-10.794 12.698-22.54 21.587z"/><path id="ug5yb" d="M1731.254 524c-4.444 6.032-7.62 11.111-8.254 17.46 3.81 3.175 6.667 4.445 10.476 4.762 1.587-7.301 3.492-11.428 8.254-17.143-5.08-.635-7.936-1.587-10.476-5.079z"/><mask id="ug5yd" width="2" height="2" x="-1" y="-1"><path fill="#fff" d="M1843 507h41v44h-41z"/><use xlink:href="#ug5ya"/></mask><filter id="ug5yc" width="69" height="74" x="1829" y="493" filterUnits="userSpaceOnUse"><feOffset dy="2" in="SourceGraphic" result="FeOffset1761Out"/><feGaussianBlur in="FeOffset1761Out" result="FeGaussianBlur1762Out" stdDeviation="1.6 1.6"/></filter><linearGradient id="ug5ye" x1="1851.55" x2="1874.32" y1="516.7" y2="542.41" gradientUnits="userSpaceOnUse"><stop offset="0" stop-color="#ab3c00"/><stop offset=".34" stop-color="#ffc700"/><stop offset=".37" stop-color="#ffcd17"/><stop offset=".41" stop-color="#ffd533"/><stop offset=".44" stop-color="#ffda46"/><stop offset=".48" stop-color="#ffdd52"/><stop offset=".52" stop-color="#ffde56"/><stop offset=".55" stop-color="#ffdd51"/><stop offset=".59" stop-color="#ffd943"/><stop offset=".62" stop-color="#ffd32b"/><stop offset=".66" stop-color="#ffca0b"/><stop offset=".67" stop-color="#ffc700"/><stop offset="1" stop-color="#ab3c00"/></linearGradient><mask id="ug5yg" width="2" height="2" x="-1" y="-1"><path fill="#fff" d="M1723 524h19v23h-19z"/><use xlink:href="#ug5yb"/></mask><filter id="ug5yf" width="47" height="53" x="1709" y="510" filterUnits="userSpaceOnUse"><feOffset dy="2" in="SourceGraphic" result="FeOffset1791Out"/><feGaussianBlur in="FeOffset1791Out" result="FeGaussianBlur1792Out" stdDeviation="1.6 1.6"/></filter><linearGradient id="ug5yh" x1="1725.64" x2="1738" y1="532.52" y2="537.93" gradientUnits="userSpaceOnUse"><stop offset="0" stop-color="#0038ab"/><stop offset=".11" stop-color="#0062c9"/><stop offset=".27" stop-color="#0097f0"/><stop offset=".35" stop-color="#00acff"/><stop offset=".4" stop-color="#00bfff"/><stop offset=".47" stop-color="#00d2ff"/><stop offset=".52" stop-color="#00d9ff"/><stop offset=".66" stop-color="#00b8ff"/><stop offset=".71" stop-color="#00acff"/><stop offset=".76" stop-color="#00a2f8"/><stop offset=".83" stop-color="#0086e3"/><stop offset=".93" stop-color="#0059c3"/><stop offset="1" stop-color="#0038ab"/></linearGradient></defs><g><g transform="translate(-1720 -506)"><g filter="url(#ug5yc)"><use fill="none" stroke-opacity=".3" stroke-width="0" mask="url(&quot;#ug5yd&quot;)" xlink:href="#ug5ya"/><use fill-opacity=".3" xlink:href="#ug5ya"/></g><use fill="url(#ug5ye)" xlink:href="#ug5ya"/></g><g transform="translate(-1720 -506)"><g filter="url(#ug5yf)"><use fill="none" stroke-opacity=".3" stroke-width="0" mask="url(&quot;#ug5yg&quot;)" xlink:href="#ug5yb"/><use fill-opacity=".3" xlink:href="#ug5yb"/></g><use fill="url(#ug5yh)" xlink:href="#ug5yb"/></g></g></svg>