<svg xmlns="http://www.w3.org/2000/svg" width="72.094" height="67.88" viewBox="0 0 72.094 67.88">
  <defs>
    <style>
      .cls-1 {
        fill: #fff;
        fill-rule: evenodd;
      }
    </style>
  </defs>
  <path id="Shape_24_copy_12" data-name="Shape 24 copy 12" class="cls-1" d="M912.3,6902.12c-3.733-1.88-8.223-3.09-12.257-4.52l-13.3-4.74q-12.989-4.635-25.978-9.26c-0.122-.16-0.243-0.31-0.358-0.48-1.507-2.2-4.362-2.46-6.557-1.62a5.741,5.741,0,0,0-3.817.97c-0.142.02-.285,0.03-0.421,0.06-2.943.54-4.01,2.63-3.594,4.75a285.036,285.036,0,0,1,5.284,54.46,17.124,17.124,0,0,0-.011,3.25c0.411,4.46,8.2,5.24,9.941,1.75a7.035,7.035,0,0,0,3.863-1.03l45.1-27.6c3.377-2.07,7.027-4.2,7.728-7.72C918.608,6906.94,916.011,6904,912.3,6902.12Z" transform="translate(-845.906 -6881.06)"/>
</svg>
