<svg width="300" height="300" viewBox="0 0 300 300" fill="none" xmlns="http://www.w3.org/2000/svg">
<path fill-rule="evenodd" clip-rule="evenodd" d="M0 0V300H300V0H0ZM265.684 212.487C261.615 219.405 256.594 225.716 250.77 231.238C245.282 241.145 238.817 250.479 231.471 259.099C220.449 271.989 201.558 276.899 186.338 270.539C145.392 285.41 99.2251 276.999 65.1734 249.088C47.6621 234.728 35.6246 214.597 28.0749 193.497C20.2272 171.556 19.4573 147.955 23.2911 125.174C30.7318 80.963 67.0073 37.6916 112.31 29.6714C116.432 28.9436 120.588 28.4228 124.763 28.1113C147.083 19.411 171.109 20.6107 193.296 29.811C194.667 30.241 196.028 30.7014 197.374 31.2115C202.092 32.3315 206.81 33.4545 211.53 34.5812C224.543 37.6913 236.539 41.7317 246.87 50.632C260.955 62.7724 265.607 82.1231 268.025 100.214C268.285 100.834 268.538 101.464 268.783 102.094C271.69 109.644 272.961 118.084 273.542 126.465C281.891 155.095 281.501 185.667 265.684 212.487Z" fill="#F7FAFC"/>
</svg>
