<svg xmlns="http://www.w3.org/2000/svg" width="300" height="300" viewBox="0 0 300 300">
  <defs>
    <style>
      .cls-1 {
        fill: #f7fafc;
        fill-rule: evenodd;
      }
    </style>
  </defs>
  <path id="Shape_17_copy_4" data-name="Shape 17 copy 4" class="cls-1" d="M723.988,6765.01V7065H1024V6765.01H723.988Zm265.695,212.48a85.761,85.761,0,0,1-14.915,18.75,169.822,169.822,0,0,1-19.3,27.86c-11.022,12.89-29.914,17.8-45.135,11.44-40.947,14.87-87.116,6.46-121.169-21.45-17.512-14.36-29.55-34.49-37.1-55.59-7.848-21.94-8.618-45.54-4.784-68.32,7.441-44.21,43.718-87.48,89.022-95.5a125.262,125.262,0,0,1,12.454-1.56c22.321-8.7,46.348-7.5,68.536,1.7,1.371,0.43,2.732.89,4.078,1.4q7.077,1.68,14.156,3.37c13.014,3.11,25.01,7.15,35.342,16.05,14.085,12.14,18.738,31.49,21.156,49.58,0.26,0.62.513,1.25,0.758,1.88,2.907,7.55,4.178,15.99,4.759,24.37C1005.89,6920.1,1005.5,6950.67,989.683,6977.49Z" transform="translate(-724 -6765)"/>
</svg>
