<svg width="602" height="804" viewBox="0 0 602 804" fill="none" xmlns="http://www.w3.org/2000/svg">
<path fill-rule="evenodd" clip-rule="evenodd" d="M-42 -64V866H646V-64H-42ZM567.303 594.71C557.97 616.154 546.456 635.72 533.099 652.837C520.513 683.55 505.686 712.483 488.84 739.206C463.563 779.166 420.24 794.388 385.334 774.671C291.433 820.77 185.556 794.698 107.464 708.174C67.3051 663.656 39.699 601.251 22.3851 535.839C4.38769 467.823 2.6219 394.66 11.4142 324.04C28.4782 186.984 111.67 52.8429 215.563 27.9801C225.017 25.7239 234.549 24.1098 244.123 23.1439C295.311 -3.82699 350.41 -0.10687 401.293 28.4141C404.437 29.7471 407.558 31.1732 410.645 32.7542C421.464 36.2263 432.285 39.7088 443.108 43.2016C472.952 52.8429 500.462 65.3673 524.155 92.9582C556.456 130.593 567.126 190.58 572.671 246.661C573.268 248.583 573.848 250.536 574.41 252.49C581.076 275.895 583.991 302.06 585.323 328.039C604.469 416.795 603.575 511.565 567.303 594.71V594.71Z" fill="#F7F7F7"/>
</svg>
