<?xml version="1.0" encoding="utf-8"?>
<!-- Generator: Adobe Illustrator 17.0.0, SVG Export Plug-In . SVG Version: 6.00 Build 0)  -->
<!DOCTYPE svg PUBLIC "-//W3C//DTD SVG 1.1//EN" "http://www.w3.org/Graphics/SVG/1.1/DTD/svg11.dtd">
<svg version="1.1" id="Слой_1" xmlns="http://www.w3.org/2000/svg" xmlns:xlink="http://www.w3.org/1999/xlink" x="0px" y="0px"
	 width="1920px" height="55.75px" viewBox="0 0 1920 55.75" enable-background="new 0 0 1920 55.75" xml:space="preserve">
<g>
	<path fill="#F7F7F7" d="M7.063,7.763c3.812,1.196,7.623,2.395,11.319,3.942c28.475,11.924,57.607,13.904,87.496,6.065
		c20.415-5.355,40.489-12.12,61.779-13.817c18.62-1.484,36.624-0.642,53.054,9.535c12.576,7.79,26.59,10.337,41.039,10.87
		c19.603,0.723,38.541-2.757,56.366-10.964c19.758-9.097,40.574-9.96,61.659-8.721c13.45,0.791,24.776,7.111,35.172,15.296
		c8.282,6.52,17.639,9.617,28.278,9.514c17.082-0.165,33.253-4.367,49.139-10.129c20.559-7.456,41.147-14.613,63.603-13.004
		c5.248,0.376,10.191,1.173,14.866,3.636c5.458,2.875,11.015,5.465,17.188,6.589c16.43,2.99,32.953,3.434,49.619,2.972
		c19.387-0.537,38.039-5.061,56.188-10.88c21.6-6.926,42.618-7.152,63.408,1.203c14.807,5.951,29.801,9.16,45.725,8.582
		c16.292-0.591,31.882-4.593,47.463-8.915c26.233-7.277,52.237-7.929,77.606,3.629c13.003,5.924,26.824,8.027,40.865,7.833
		c12.947-0.179,25.742-1.917,38.449-5.187c21.573-5.551,43.647-8.826,65.745-11.622c18.725-2.37,36.929-0.927,53.528,9.306
		c12.741,7.854,26.911,10.393,41.54,10.873c19.436,0.638,38.2-2.853,55.866-10.985c19.76-9.096,40.578-9.949,61.662-8.708
		c13.451,0.792,24.767,7.13,35.165,15.312c8.282,6.517,17.648,9.602,28.286,9.494c17.083-0.172,33.251-4.378,49.14-10.137
		c20.56-7.453,41.148-14.617,63.605-12.994c5.247,0.379,10.185,1.186,14.862,3.65c5.457,2.875,11.016,5.463,17.193,6.578
		c15.269,2.759,30.624,3.284,46.123,3.084c15.667-0.203,30.777-3.184,45.724-7.245c13.762-3.739,27.818-5.42,41.923-5.627
		c13.68-0.201,27.115,2.384,39.946,7.638c12.683,5.193,25.608,9.726,39.628,8.923c11.178-0.64,22.018-3.067,32.738-6.364
		c22.625-6.96,45.745-7.949,69.131-4.937c15.193,1.957,29.93,6.572,45.237,7.777c16.263,1.279,32.521,1.808,48.644-1.616
		c4.072-0.865,8.038-2.174,12.132-2.91c4.897-0.88,6.074,0.094,6.088,4.949c0.032,11.498,0.016,22.997,0.002,34.495
		c-0.001,0.976,0.219,2.011-0.491,2.875c-638.42,0-1276.84,0-1915.261,0c-0.5,0-1.014-0.078-1.497,0.013
		c-2.504,0.471-3.091-0.511-3.069-3.013C1.067,39.292,1,23.96,1,8.629C2.798,6.793,4.942,7.098,7.063,7.763z"/>
</g>
</svg>
