<svg xmlns="http://www.w3.org/2000/svg" xmlns:xlink="http://www.w3.org/1999/xlink" width="203" height="359" viewBox="0 0 203 359"><defs><path id="xfxxa" d="M131.571 534c-1.587 4.127-3.492 6.35-8.571 7.619 3.81 4.127 7.619 6.032 14.286 8.889 3.81-1.27 5.397-3.175 6.984-7.302-5.714-2.54-9.841-4.762-12.699-9.206z"/><path id="xfxxb" d="M286 242.127c3.492 2.857 7.302 3.175 13.333 3.175-.317-13.016 3.175-26.985 8.89-42.54-4.763-.318-7.62-1.587-11.747-4.762-7.301 16.19-9.841 25.714-10.476 44.127z"/><path id="xfxxc" d="M298 377.81c6.984 0 11.111 1.587 16.19 8.253 3.81-8.253 4.445-14.603 5.08-26.031-4.127-5.08-7.62-6.032-14.92-6.032-.636 9.841-1.588 16.825-6.35 23.81z"/><mask id="xfxxe" width="2" height="2" x="-1" y="-1"><path fill="#fff" d="M123 534h22v17h-22z"/><use xlink:href="#xfxxa"/></mask><filter id="xfxxd" width="50" height="47" x="109" y="520" filterUnits="userSpaceOnUse"><feOffset dy="2" in="SourceGraphic" result="FeOffset1109Out"/><feGaussianBlur in="FeOffset1109Out" result="FeGaussianBlur1110Out" stdDeviation="1.6 1.6"/></filter><linearGradient id="xfxxf" x1="137.64" x2="128.58" y1="537.74" y2="549.44" gradientUnits="userSpaceOnUse"><stop offset="0" stop-color="#0038ab"/><stop offset=".11" stop-color="#0062c9"/><stop offset=".27" stop-color="#0097f0"/><stop offset=".35" stop-color="#00acff"/><stop offset=".4" stop-color="#00bfff"/><stop offset=".47" stop-color="#00d2ff"/><stop offset=".52" stop-color="#00d9ff"/><stop offset=".66" stop-color="#00b8ff"/><stop offset=".71" stop-color="#00acff"/><stop offset=".76" stop-color="#00a2f8"/><stop offset=".83" stop-color="#0086e3"/><stop offset=".93" stop-color="#0059c3"/><stop offset="1" stop-color="#0038ab"/></linearGradient><mask id="xfxxh" width="2" height="2" x="-1" y="-1"><path fill="#fff" d="M286 198h23v48h-23z"/><use xlink:href="#xfxxb"/></mask><filter id="xfxxg" width="51" height="78" x="272" y="184" filterUnits="userSpaceOnUse"><feOffset dy="2" in="SourceGraphic" result="FeOffset1139Out"/><feGaussianBlur in="FeOffset1139Out" result="FeGaussianBlur1140Out" stdDeviation="1.6 1.6"/></filter><linearGradient id="xfxxi" x1="284.67" x2="305.99" y1="218.13" y2="225.55" gradientUnits="userSpaceOnUse"><stop offset="0" stop-color="#005200"/><stop offset=".19" stop-color="#00890b"/><stop offset=".31" stop-color="#00a912"/><stop offset=".33" stop-color="#11ad12"/><stop offset=".37" stop-color="#3ab512"/><stop offset=".41" stop-color="#5abc12"/><stop offset=".44" stop-color="#71c112"/><stop offset=".48" stop-color="#7ec412"/><stop offset=".51" stop-color="#83c512"/><stop offset=".55" stop-color="#7fc412"/><stop offset=".59" stop-color="#72c112"/><stop offset=".63" stop-color="#5ebd12"/><stop offset=".67" stop-color="#41b712"/><stop offset=".72" stop-color="#1caf12"/><stop offset=".74" stop-color="#00a912"/><stop offset=".78" stop-color="#009e10"/><stop offset=".86" stop-color="#00800c"/><stop offset=".95" stop-color="#005004"/><stop offset="1" stop-color="#003400"/></linearGradient><mask id="xfxxk" width="2" height="2" x="-1" y="-1"><path fill="#fff" d="M298 354h22v33h-22z"/><use xlink:href="#xfxxc"/></mask><filter id="xfxxj" width="50" height="63" x="284" y="340" filterUnits="userSpaceOnUse"><feOffset dy="2" in="SourceGraphic" result="FeOffset1175Out"/><feGaussianBlur in="FeOffset1175Out" result="FeGaussianBlur1176Out" stdDeviation="1.6 1.6"/></filter><linearGradient id="xfxxl" x1="300.16" x2="322.61" y1="366.65" y2="373.17" gradientUnits="userSpaceOnUse"><stop offset="0" stop-color="#920040"/><stop offset=".05" stop-color="#ae0052"/><stop offset=".12" stop-color="#d10069"/><stop offset=".19" stop-color="#ea007a"/><stop offset=".25" stop-color="#fa0084"/><stop offset=".3" stop-color="#ff0087"/><stop offset=".35" stop-color="#ff1a8b"/><stop offset=".43" stop-color="#ff3f92"/><stop offset=".5" stop-color="#ff5696"/><stop offset=".55" stop-color="#ff5e97"/><stop offset=".58" stop-color="#ff5696"/><stop offset=".64" stop-color="#ff3f92"/><stop offset=".71" stop-color="#ff198b"/><stop offset=".75" stop-color="#ff0087"/><stop offset=".79" stop-color="#fa0084"/><stop offset=".84" stop-color="#ea007a"/><stop offset=".9" stop-color="#d10069"/><stop offset=".96" stop-color="#ae0053"/><stop offset="1" stop-color="#920040"/></linearGradient></defs><g><g transform="translate(-120 -197)"><g filter="url(#xfxxd)"><use fill="none" stroke-opacity=".3" stroke-width="0" mask="url(&quot;#xfxxe&quot;)" xlink:href="#xfxxa"/><use fill-opacity=".3" xlink:href="#xfxxa"/></g><use fill="url(#xfxxf)" xlink:href="#xfxxa"/></g><g transform="translate(-120 -197)"><g filter="url(#xfxxg)"><use fill="none" stroke-opacity=".3" stroke-width="0" mask="url(&quot;#xfxxh&quot;)" xlink:href="#xfxxb"/><use fill-opacity=".3" xlink:href="#xfxxb"/></g><use fill="url(#xfxxi)" xlink:href="#xfxxb"/></g><g transform="translate(-120 -197)"><g filter="url(#xfxxj)"><use fill="none" stroke-opacity=".3" stroke-width="0" mask="url(&quot;#xfxxk&quot;)" xlink:href="#xfxxc"/><use fill-opacity=".3" xlink:href="#xfxxc"/></g><use fill="url(#xfxxl)" xlink:href="#xfxxc"/></g></g></svg>