<svg xmlns="http://www.w3.org/2000/svg" width="72.094" height="67.88"><path data-name="Shape 24 copy 12" d="M66.394 21.06c-3.733-1.88-8.223-3.09-12.257-4.52l-13.3-4.74Q27.848 7.165 14.859 2.54c-.122-.16-.243-.31-.358-.48C12.994-.14 10.139-.4 7.944.44a5.741 5.741 0 00-3.817.97c-.142.02-.285.03-.421.06C.763 2.01-.304 4.1.112 6.22a285.036 285.036 0 015.284 54.46 17.124 17.124 0 00-.011 3.25c.411 4.46 8.2 5.24 9.941 1.75a7.035 7.035 0 003.863-1.03l45.1-27.6c3.377-2.07 7.027-4.2 7.728-7.72.685-3.45-1.912-6.39-5.623-8.27z" fill="#fff" fill-rule="evenodd"/></svg>