<svg xmlns="http://www.w3.org/2000/svg" width="300" height="300"><path data-name="Shape 17 copy 4" d="M-.012.01V300H300V.01H-.012zm265.695 212.48a85.761 85.761 0 01-14.915 18.75 169.822 169.822 0 01-19.3 27.86c-11.022 12.89-29.914 17.8-45.135 11.44-40.947 14.87-87.116 6.46-121.169-21.45-17.512-14.36-29.55-34.49-37.1-55.59-7.848-21.94-8.618-45.54-4.784-68.32 7.441-44.21 43.718-87.48 89.022-95.5a125.262 125.262 0 0112.454-1.56c22.321-8.7 46.348-7.5 68.536 1.7 1.371.43 2.732.89 4.078 1.4q7.077 1.68 14.156 3.37c13.014 3.11 25.01 7.15 35.342 16.05 14.085 12.14 18.738 31.49 21.156 49.58.26.62.513 1.25.758 1.88 2.907 7.55 4.178 15.99 4.759 24.37 8.349 28.63 7.959 59.2-7.858 86.02z" fill="#f7fafc" fill-rule="evenodd"/></svg>