<svg width="600" height="800" viewBox="0 0 600 800" fill="none" xmlns="http://www.w3.org/2000/svg">
<g clip-path="url(#clip0)">
<path fill-rule="evenodd" clip-rule="evenodd" d="M-0.0239258 0.0266113V800H600V0.0266113H-0.0239258ZM531.366 566.64C523.226 585.086 513.185 601.916 501.536 616.64C490.56 643.059 477.629 667.947 462.936 690.933C440.892 725.307 403.108 738.4 372.666 721.44C290.772 761.093 198.434 738.667 130.328 664.24C95.3041 625.947 71.2281 572.267 56.1281 516C40.4321 457.493 38.8921 394.56 46.5601 333.813C61.4421 215.92 133.996 100.533 224.604 79.1466C232.849 77.2058 241.162 75.8174 249.512 74.9866C294.154 51.7866 342.208 54.9866 386.584 79.5199C389.326 80.6666 392.048 81.8933 394.74 83.2533C404.176 86.2399 413.613 89.2355 423.052 92.24C449.08 100.533 473.072 111.307 493.736 135.04C521.906 167.413 531.212 219.013 536.048 267.253C536.568 268.907 537.074 270.587 537.564 272.267C543.378 292.4 545.92 314.907 547.082 337.253C563.78 413.6 563 495.12 531.366 566.64V566.64Z" fill="#F7FAFC"/>
</g>
<defs>
<clipPath id="clip0">
<rect width="600" height="800" fill="#f7f7f7"/>
</clipPath>
</defs>
</svg>
