<svg xmlns="http://www.w3.org/2000/svg" width="1920" height="55.75"><path fill="#4F4F4F" d="M7.063 7.763c3.812 1.196 7.623 2.395 11.319 3.942 28.475 11.924 57.607 13.904 87.496 6.065 20.415-5.355 40.489-12.12 61.779-13.817 18.62-1.484 36.624-.642 53.054 9.535 12.576 7.79 26.59 10.337 41.039 10.87 19.603.723 38.541-2.757 56.366-10.964 19.758-9.097 40.574-9.96 61.659-8.721 13.45.791 24.776 7.111 35.172 15.296 8.282 6.52 17.639 9.617 28.278 9.514 17.082-.165 33.253-4.367 49.139-10.129 20.559-7.456 41.147-14.613 63.603-13.004 5.248.376 10.191 1.173 14.866 3.636 5.458 2.875 11.015 5.465 17.188 6.589 16.43 2.99 32.953 3.434 49.619 2.972 19.387-.537 38.039-5.061 56.188-10.88 21.6-6.926 42.618-7.152 63.408 1.203 14.807 5.951 29.801 9.16 45.725 8.582 16.292-.591 31.882-4.593 47.463-8.915 26.233-7.277 52.237-7.929 77.606 3.629 13.003 5.924 26.824 8.027 40.865 7.833 12.947-.179 25.742-1.917 38.449-5.187 21.573-5.551 43.647-8.826 65.745-11.622 18.725-2.37 36.929-.927 53.528 9.306 12.741 7.854 26.911 10.393 41.54 10.873 19.436.638 38.2-2.853 55.866-10.985 19.76-9.096 40.578-9.949 61.662-8.708 13.451.792 24.767 7.13 35.165 15.312 8.282 6.517 17.648 9.602 28.286 9.494 17.083-.172 33.251-4.378 49.14-10.137 20.56-7.453 41.148-14.617 63.605-12.994 5.247.379 10.185 1.186 14.862 3.65 5.457 2.875 11.016 5.463 17.193 6.578 15.269 2.759 30.624 3.284 46.123 3.084 15.667-.203 30.777-3.184 45.724-7.245 13.762-3.739 27.818-5.42 41.923-5.627 13.68-.201 27.115 2.384 39.946 7.638 12.683 5.193 25.608 9.726 39.628 8.923 11.178-.64 22.018-3.067 32.738-6.364 22.625-6.96 45.745-7.949 69.131-4.937 15.193 1.957 29.93 6.572 45.237 7.777 16.263 1.279 32.521 1.808 48.644-1.616 4.072-.865 8.038-2.174 12.132-2.91 4.897-.88 6.074.094 6.088 4.949.032 11.498.016 22.997.002 34.495-.001.976.219 2.011-.491 2.875H5.5c-.5 0-1.014-.078-1.497.013-2.504.471-3.091-.511-3.069-3.013C1.067 39.292 1 23.96 1 8.629c1.798-1.836 3.942-1.531 6.063-.866z"/></svg>