<svg height="511pt" viewBox="0 -24 511.998 511" width="511pt" xmlns="http://www.w3.org/2000/svg"><path d="M482.867 130.871c-4.926 0-9.57 1.234-13.644 3.402-7.707-16.5-24.45-27.964-43.832-27.964h-42.942a48.148 48.148 0 00-16.515 2.906l15.761-51.617c3.356-11 2.23-22.649-3.172-32.801-5.402-10.152-14.433-17.594-25.433-20.95l-4.903-1.5c-16.949-5.171-34.921.848-45.714 13.79a42.99 42.99 0 00-15.578-7.813c-11.106-2.976-22.711-1.449-32.668 4.305l-7.97 4.598C225.7 29.097 218.63 55.484 230.5 76.043l40.973 70.969a43.099 43.099 0 008.023 10.074 53.34 53.34 0 00-16.012 16.16L229.27 227.06a53.379 53.379 0 00-8.325 30.707 48.274 48.274 0 00-13.156-1.832h-34.035a48.079 48.079 0 00-23.012 5.832 37.295 37.295 0 00-1.644-4.114l-28.375-60.004c-4.2-8.878-11.606-15.593-20.856-18.906-7.254-2.594-14.957-2.84-22.226-.808l-20.332-42.7c-2.38-4.988-8.348-7.105-13.336-4.73-4.989 2.375-7.11 8.344-4.735 13.332L59.551 186.5c-6.164 4.328-10.848 10.426-13.438 17.664-3.308 9.25-2.816 19.234 1.383 28.113l28.344 59.946c-.555.129-1.11.254-1.664.402-14.004 3.754-25.707 12.734-32.957 25.29L7.262 376.73c-14.965 25.918-6.051 59.18 19.867 74.145l10.668 6.16a53.91 53.91 0 0027.047 7.262c18.773 0 37.058-9.734 47.097-27.125l33.957-58.817c3.594-6.222 5.875-12.953 6.809-19.867a48.026 48.026 0 0021.047 4.828h34.035a48.09 48.09 0 0022.941-5.796 53.964 53.964 0 006.383 17.39l33.957 58.813c10.043 17.394 28.325 27.129 47.094 27.129a53.96 53.96 0 0027.05-7.262l10.673-6.16c25.918-14.965 34.828-48.227 19.863-74.145l-33.957-58.816c-6.324-10.957-15.926-18.86-26.856-23.219a53.945 53.945 0 004.946-6.566l34.21-53.813c4.259-6.691 6.923-14.078 7.938-21.71a48.064 48.064 0 0020.414 4.534h42.946c19.379 0 36.125-11.465 43.832-27.965a28.943 28.943 0 0013.644 3.403c16.063 0 29.13-13.07 29.13-29.133s-13.063-29.129-29.13-29.129zM342.344 21.484l4.902 1.496v.004c5.887 1.797 10.723 5.778 13.613 11.211 2.891 5.434 3.493 11.668 1.696 17.559l-12.461 40.809-27.469-47.57-7.223-12.513c5.141-9.359 16.418-14.207 26.942-10.996zm-39.547 126.258a22.891 22.891 0 01-13.996-10.738l-40.973-70.969c-6.355-11.004-2.57-25.125 8.434-31.48l7.968-4.598a22.904 22.904 0 0111.485-3.098c2.004 0 4.02.262 6.004.793a22.875 22.875 0 0113.953 10.68l.094.156 18.129 31.395 22.789 39.472c4.89 8.649 3.789 19.743-2.957 27.098-3.614 3.942-8.836 6.363-13.43 8.98-5.238 2.977-11.664 3.876-17.5 2.31zM64.953 210.906a16.655 16.655 0 018.621-9.508l3.383-1.601c.004 0 .004 0 .008-.004.004 0 .008 0 .012-.004l3.332-1.578a16.686 16.686 0 017.14-1.606c6.285 0 12.324 3.547 15.184 9.598l28.375 60.004a16.655 16.655 0 01.629 12.82 16.64 16.64 0 01-8.617 9.504l-6.735 3.188c-8.355 3.953-18.37.367-22.324-7.989l-28.375-60.007a16.646 16.646 0 01-.633-12.817zm63.617 157.442l-33.957 58.816c-9.449 16.363-30.449 21.988-46.808 12.543l-10.672-6.16c-16.363-9.45-21.988-30.45-12.543-46.809l33.957-58.816c4.578-7.93 11.965-13.598 20.808-15.965 8.836-2.371 18.075-1.156 26 3.422l10.672 6.16c7.926 4.578 13.598 11.965 15.965 20.809 2.371 8.84 1.156 18.074-3.422 26zm79.22-25.043h-34.036c-15.629 0-28.344-12.715-28.344-28.344v-10.676c0-15.629 12.715-28.344 28.344-28.344h34.035c15.629 0 28.344 12.715 28.344 28.344v10.676c0 15.629-12.715 28.344-28.344 28.344zm116.675-18.832l33.957 58.816c9.45 16.363 3.82 37.363-12.543 46.809l-10.672 6.16c-16.36 9.449-37.36 3.82-46.809-12.54l-33.953-58.816c-9.449-16.363-3.82-37.363 12.54-46.808l10.671-6.16a34.042 34.042 0 0117.078-4.586c11.852 0 23.391 6.148 29.73 17.125zm12.746-104.34L303 273.945c-9.969 15.672-30.828 20.317-46.5 10.348-15.668-9.969-20.313-30.828-10.344-46.5l34.211-53.813c5.953-9.355 15.79-14.773 26.082-15.503a43.98 43.98 0 002.38.078c.816 0 1.628-.032 2.44-.078a33.466 33.466 0 0115.594 5.16c7.594 4.828 12.852 12.324 14.805 21.105 1.953 8.785.371 17.801-4.457 25.39zm116.527-54.793c0 15.629-12.718 28.344-28.347 28.344h-42.942c-15.629 0-28.347-12.715-28.347-28.344v-10.676c0-15.629 12.718-28.344 28.347-28.344h42.942c15.629 0 28.347 12.715 28.347 28.344zm29.13 3.781c-5.028 0-9.122-4.09-9.122-9.121 0-5.027 4.094-9.117 9.121-9.117 5.031 0 9.121 4.09 9.121 9.117 0 5.031-4.09 9.121-9.12 9.121zM21.793 107.148c1.621 3.895 5.652 6.438 9.875 6.165 4.129-.266 7.723-3.133 8.934-7.086 1.226-4-.266-8.52-3.66-10.977-3.27-2.371-7.747-2.559-11.184-.426-4.102 2.551-5.828 7.86-3.965 12.324zm0 0" fill="#fff"/></svg>