<svg height="640" viewBox="0 0 480.362 480" width="640" xmlns="http://www.w3.org/2000/svg"><path d="M312.29 80.18a166.62 166.62 0 00-112 43.074c-35.376-45.32-99.317-56.5-147.966-25.863C3.672 128.023-13.883 190.516 11.7 242.004c25.582 51.484 85.992 75.238 139.79 54.969a162.495 162.495 0 008.386 21.77c-32.719 21.538-47.246 62.116-35.637 99.527 11.61 37.406 46.559 62.632 85.719 61.867 39.164-.766 73.098-27.336 83.238-65.172 61.907 7.133 122.672-20.598 157.852-72.035 35.176-51.438 38.98-118.125 9.879-173.23-29.102-55.106-86.32-89.567-148.637-89.52zm-296 112c-.067-41.29 26.32-77.977 65.483-91.051 39.165-13.074 82.301.406 107.051 33.453A166.664 166.664 0 00144.29 248.18a169.092 169.092 0 003.352 33.129 95.734 95.734 0 01-89.371-9.645 95.732 95.732 0 01-41.98-79.484zm192 272c-39.767 0-72-32.235-72-72 0-39.762 32.233-72 72-72 39.765 0 72 32.238 72 72-.044 39.746-32.255 71.957-72 72zm104-64a151.506 151.506 0 01-16.353-1c.184-2.313.352-4.637.352-7a88.003 88.003 0 00-39.387-73.348A88.005 88.005 0 00174 311.141a148.554 148.554 0 01-9.375-26.856 152.984 152.984 0 01-4.336-36.105c0-83.946 68.055-152 152-152 83.95 0 152 68.054 152 152 0 83.949-68.05 152-152 152zm0 0" fill="#fff"/><path d="M72.29 360.18a8 8 0 00-16 0c0 13.257-10.747 24-24 24a8 8 0 000 16c13.253 0 24 10.746 24 24a8 8 0 0016 0c0-13.254 10.745-24 24-24a8 8 0 000-16c-13.255 0-24-10.743-24-24zm-8 40.25a39.876 39.876 0 00-8.247-8.25 39.857 39.857 0 008.246-8.246 39.876 39.876 0 008.25 8.246 39.894 39.894 0 00-8.25 8.25zm328-328.25a8 8 0 0016 0c0-13.254 10.745-24 24-24a8 8 0 000-16c-13.255 0-24-10.743-24-24a8 8 0 00-16 0c0 13.257-10.747 24-24 24a8 8 0 000 16c13.253 0 24 10.746 24 24zm8-40.246a39.876 39.876 0 008.25 8.246 39.894 39.894 0 00-8.25 8.25 39.876 39.876 0 00-8.247-8.25 39.857 39.857 0 008.246-8.246zm16 216.246c-13.255 0-24-10.743-24-24a8 8 0 00-16 0c0 13.257-10.747 24-24 24a8 8 0 000 16c13.253 0 24 10.746 24 24a8 8 0 0016 0c0-13.254 10.745-24 24-24a8 8 0 000-16zm-32 16.25a39.876 39.876 0 00-8.247-8.25 39.857 39.857 0 008.246-8.246 39.876 39.876 0 008.25 8.246 39.894 39.894 0 00-8.25 8.25zm-56-80.25a8 8 0 00-8-8c-13.255 0-24-10.743-24-24a8 8 0 00-16 0c0 13.257-10.747 24-24 24a8 8 0 000 16c13.253 0 24 10.746 24 24a8 8 0 0016 0c0-13.254 10.745-24 24-24a8 8 0 008-8zm-40 8.25a39.876 39.876 0 00-8.247-8.25 39.857 39.857 0 008.246-8.246 39.876 39.876 0 008.25 8.246 39.894 39.894 0 00-8.25 8.25zm-192 135.75h16v16h-16zm-80 112h16v16h-16zm456-24c0-13.254-10.747-24-24-24-13.255 0-24 10.746-24 24 0 13.257 10.745 24 24 24 13.253 0 24-10.743 24-24zm-32 0a8 8 0 1116 0 8 8 0 01-16 0zm-200-360c0-17.672-14.33-32-32-32-17.673 0-32 14.328-32 32 0 17.675 14.327 32 32 32 17.67 0 32-14.325 32-32zm-48 0c0-8.836 7.163-16 16-16 8.835 0 16 7.164 16 16 0 8.84-7.165 16-16 16-8.837 0-16-7.16-16-16zm96-16h16v16h-16zm32 296h16v16h-16zm48 104h16v16h-16zm-272-232h16v16h-16zm-64 .722l16-1.441c-.04-.383-3.2-38.457 17.878-61.602a59.631 59.631 0 0146.121-17.68v-16a74.876 74.876 0 00-57.96 22.915c-25.825 28.289-22.177 71.969-22.04 73.808zm288-96.722v16c4 0 97.241 1.707 112.089 113.058l15.855-2.113C431.488 113.637 321.402 112.18 320.29 112.18zm0 0" fill="#fff"/></svg>