<svg xmlns="http://www.w3.org/2000/svg" width="22" height="21.99"><defs><style>.cls-1{fill:#3a0f54}</style></defs><g id="Слой_2" data-name="Слой 2"><g id="Calque_2" data-name="Calque 2"><path class="cls-1" d="M11 0a11 11 0 1011 11A11 11 0 0011 0zm.65 20.66v-2.19a.65.65 0 00-1.3 0v2.19a9.71 9.71 0 01-9-9h2.12a.66.66 0 00.66-.66.67.67 0 00-.66-.66H1.33a9.71 9.71 0 019-9v2.18a.65.65 0 101.3 0V1.33a9.71 9.71 0 019 9h-2.21a.67.67 0 00-.66.66.66.66 0 00.66.65h2.25a9.71 9.71 0 01-9.02 9.02z"/><path class="cls-1" d="M11.01 11.08L8 8.22l-.9.96 3.94 3.72 5.78-5.78-.92-.93-4.89 4.89z"/></g></g></svg>