<svg xmlns="http://www.w3.org/2000/svg" width="29" height="23"><path d="M25.16 0H3.84A3.82 3.82 0 000 3.8v15.4A3.82 3.82 0 003.84 23h21.32A3.82 3.82 0 0029 19.2V3.8A3.82 3.82 0 0025.16 0zM3.84 1.1h21.32a2.7 2.7 0 012.07 1L16.85 12.2a3.163 3.163 0 01-4.42 0L1.91 1.9a2.679 2.679 0 011.93-.8zm24.02 18.1a2.571 2.571 0 01-.34 1.3l-7.59-7.4a.3.3 0 00-.4 0 .284.284 0 000 .4l7.66 7.5a2.928 2.928 0 01-2.03.9H3.84a2.909 2.909 0 01-2.03-.9l7.66-7.5a.284.284 0 000-.4.3.3 0 00-.4 0l-7.6 7.4a2.669 2.669 0 01-.33-1.3V3.8a2.369 2.369 0 01.41-1.4l10.48 10.2a3.658 3.658 0 005.23 0L27.55 2.5a2.773 2.773 0 01.31 1.3v15.4z" fill="#6b0769" fill-rule="evenodd"/></svg>