<svg xmlns="http://www.w3.org/2000/svg" width="26" height="23.52" viewBox="0 0 26 23.52">
  <defs>
    <style>
      .cls-1 {
        fill: #3a0f54;
      }
    </style>
  </defs>
  <title>param-1</title>
  <g id="Слой_2" data-name="Слой 2">
    <g id="Calque_2" data-name="Calque 2">
      <g>
        <path class="cls-1" d="M23.63,7.41a11.3,11.3,0,0,0-8-7.18.81.81,0,0,0-.38,1.58,9.65,9.65,0,0,1,7,6.59.68.68,0,0,0,.07.2.83.83,0,0,0,.94.4,1.65,1.65,0,0,1,1.12,1.62A1.9,1.9,0,0,1,24,11.88a1.12,1.12,0,0,1-.74.47.81.81,0,0,0-.82.53.84.84,0,0,0-.05.2,9.6,9.6,0,0,1-18.83-.14.81.81,0,0,0-.8-.65H2.69a1.54,1.54,0,0,1-1.06-1.67A1.57,1.57,0,0,1,2.9,9a.7.7,0,0,0,.35,0,.83.83,0,0,0,.54-.55,9.49,9.49,0,0,1,7.09-6.64,5,5,0,0,0,2.7,3.82.81.81,0,0,0,1.07-.42.8.8,0,0,0-.41-1.07C12.46,3.3,12.41.85,12.41.83a1,1,0,0,0-.05-.29A.82.82,0,0,0,11.49,0a11.14,11.14,0,0,0-9.1,7.4A3.26,3.26,0,0,0,0,10.56a3.2,3.2,0,0,0,2.09,3.26,11.22,11.22,0,0,0,2.72,5l-3.5,3.27,1.11,1.19L6,19.92A11.21,11.21,0,0,0,19.82,20l3.73,3.48,1.11-1.19L21,19a11.12,11.12,0,0,0,2.84-5.08,2.8,2.8,0,0,0,1.41-1A3.62,3.62,0,0,0,26,10.56,3.27,3.27,0,0,0,23.63,7.41Z"/>
        <path class="cls-1" d="M10.29,9.66a1.45,1.45,0,1,0-1.45,1.45A1.45,1.45,0,0,0,10.29,9.66Zm-1.63,0a.19.19,0,0,1,.18-.18A.18.18,0,0,1,9,9.66C9,9.86,8.66,9.86,8.66,9.66Z"/>
        <path class="cls-1" d="M17.16,11.11a1.45,1.45,0,1,0-1.45-1.45A1.44,1.44,0,0,0,17.16,11.11Zm0-1.63a.18.18,0,0,1,.18.18c0,.2-.36.2-.36,0A.19.19,0,0,1,17.16,9.48Z"/>
        <path class="cls-1" d="M15.17,14.88a4.63,4.63,0,0,1-4.29,0A.81.81,0,1,0,10,16.3a5.68,5.68,0,0,0,2.91.75,6.8,6.8,0,0,0,3-.7.83.83,0,0,0,.38-1.09A.82.82,0,0,0,15.17,14.88Z"/>
      </g>
    </g>
  </g>
</svg>
