<svg xmlns="http://www.w3.org/2000/svg" width="25" height="29"><path d="M24.86 23.7l-.01-.1c-.22-.3-.48-.6-.75-1a16.256 16.256 0 00-4.84-4.4.455.455 0 00-.36-.1 4.429 4.429 0 00-1.86.6 1.666 1.666 0 00-.66.7c-.11.1-.24.3-.41.5a1.905 1.905 0 01-1.4.9 1.388 1.388 0 01-.94-.4 23.707 23.707 0 01-3.5-3.8c-.01-.1-.02-.1-.03-.1h-.05a27.819 27.819 0 01-2.87-4.4c-.17-.6-.43-1.5 1.06-2.2.22-.1.43-.2.61-.3h.03a2.187 2.187 0 00.84-.4c.01-.1 1.14-1.4 1-2.1a16.313 16.313 0 00-3.05-5.8 5.847 5.847 0 00-.82-1A.834.834 0 006.2 0L4.62.1a.563.563 0 00-.4.1 8.658 8.658 0 00-1.2.9c-.09.1-.19.1-.28.2A8.07 8.07 0 00.1 5.5 4.554 4.554 0 000 6.6a7.224 7.224 0 00.08.8c.01 0 .01.1.02.1a35.673 35.673 0 005.93 11.9l.11.1c.01.1.02.1.03.1h.04l.09.2a35.149 35.149 0 009.96 8.7h.12c.23.1.47.2.73.3a4.034 4.034 0 001.08.2h.27a8.2 8.2 0 004.37-1.6c.11-.1.22-.1.31-.2.43-.3.97-.8 1.12-.9a1.256 1.256 0 00.25-.4l.45-1.5a.759.759 0 00-.1-.7zM5.31 1.3l.76-.1a5.518 5.518 0 00.64.8A15.77 15.77 0 019.5 7.2a8.107 8.107 0 01-.42.8l-.48.4c-.05 0-.1.1-.15.1h-.03a3.318 3.318 0 00-.73.3 2.872 2.872 0 00-1.66 3.7h.03a22.909 22.909 0 003.04 4.7c.01 0 .01 0 .02.1h.03a24.585 24.585 0 003.74 4.1c.02 0 .04 0 .06.1a3.837 3.837 0 001.62.5 2.961 2.961 0 002.33-1.3 3.434 3.434 0 00.46-.6l.44-.4a4.679 4.679 0 011.03-.3 13.7 13.7 0 014.3 4 3.661 3.661 0 01.61.8l-.29.9-.37.6a3.7 3.7 0 01-.66.5c-.09.1-.17.1-.27.2a7.087 7.087 0 01-3.69 1.4h-.21c-.27-.1-.55-.1-.81-.2a1.223 1.223 0 01-.57-.2h-.04A34.85 34.85 0 017.26 19l-.1-.1c-.01 0-.02-.1-.03-.1H7.1l-.1-.1A34.519 34.519 0 011.3 7.2h-.01a4.087 4.087 0 01-.07-.6 4.552 4.552 0 01.07-.9 7.264 7.264 0 012.26-3.5.415.415 0 00.25-.2c.26-.2.62-.4.85-.6z" fill="#6b0769" fill-rule="evenodd"/></svg>