<svg height="479pt" viewBox="-3 0 479 479.266" width="479pt" xmlns="http://www.w3.org/2000/svg"><path d="M358.18 461.73V261.645c-.012-9.68-7.856-17.524-17.535-17.536h-66.758v-47.238c0-3.312-2.688-6-6-6H99.3c-3.317 0-6 2.688-6 6v47.238H17.668c-9.68.012-17.523 7.856-17.535 17.536V461.73c.012 9.68 7.855 17.524 17.535 17.536h322.977c9.68-.012 17.523-7.856 17.535-17.536zM105.3 202.871h156.587v41.238H105.3zm-93.167 258.86V261.644a5.543 5.543 0 015.535-5.536h322.977a5.543 5.543 0 015.535 5.536V461.73a5.543 5.543 0 01-5.535 5.536H17.668a5.54 5.54 0 01-5.535-5.536zm0 0" fill="#fff"/><path d="M99.3 313.316c-33.945 0-61.456 27.516-61.456 61.457 0 33.946 27.515 61.457 61.457 61.457 33.941 0 61.457-27.515 61.457-61.457-.04-33.925-27.531-61.418-61.457-61.457zm0 110.914c-27.316 0-49.456-22.14-49.456-49.457 0-27.312 22.14-49.457 49.457-49.457 27.312 0 49.457 22.145 49.457 49.457-.031 27.305-22.156 49.43-49.457 49.457zm0 0" fill="#fff"/><path d="M99.3 347.922c-14.831 0-26.855 12.023-26.855 26.851 0 14.832 12.024 26.856 26.856 26.856 14.828-.004 26.851-12.024 26.851-26.856-.02-14.82-12.03-26.832-26.851-26.851zm0 41.7c-8.202 0-14.855-6.65-14.855-14.852 0-8.2 6.653-14.852 14.856-14.852 8.199 0 14.851 6.652 14.851 14.852-.007 8.203-6.652 14.847-14.851 14.855zm159.712-76.306c-33.942 0-61.457 27.516-61.457 61.457 0 33.946 27.515 61.457 61.457 61.457 33.945 0 61.457-27.515 61.457-61.457-.04-33.925-27.531-61.418-61.457-61.457zm0 110.914c-27.313 0-49.457-22.14-49.457-49.457 0-27.312 22.144-49.457 49.457-49.457 27.316 0 49.457 22.145 49.457 49.457-.028 27.305-22.153 49.43-49.457 49.457zm0 0" fill="#fff"/><path d="M259.012 347.922c-14.828 0-26.852 12.023-26.852 26.851 0 14.832 12.024 26.856 26.852 26.856 14.832-.004 26.851-12.024 26.851-26.856-.015-14.82-12.027-26.832-26.851-26.851zm0 41.7c-8.203.003-14.852-6.65-14.852-14.849 0-8.203 6.649-14.855 14.852-14.855s14.851 6.648 14.851 14.852c-.008 8.199-6.652 14.847-14.851 14.855zM134.348 296.48h89.617a6.001 6.001 0 000-12h-89.617c-3.313 0-6 2.688-6 6s2.687 6 6 6zM336.313 89.352v65.601a23.764 23.764 0 00-9.493-1.969c-11.847 0-21.488 8.473-21.488 18.887 0 10.41 9.64 18.883 21.488 18.883 11.602 0 21.051-8.117 21.453-18.227a6 6 0 00.04-.656v-52.34l53.144-13.11v20.735a23.76 23.76 0 00-9.492-1.965c-11.848 0-21.488 8.47-21.488 18.883 0 10.414 9.64 18.887 21.488 18.887 11.601 0 21.055-8.121 21.453-18.227a6.27 6.27 0 00.039-.66V73.281a6.001 6.001 0 00-7.437-5.824l-65.145 16.074a6 6 0 00-4.563 5.82zm-9.493 89.402c-5.14 0-9.488-3.156-9.488-6.887 0-3.73 4.348-6.883 9.488-6.883 5.145 0 9.493 3.153 9.493 6.883 0 3.735-4.348 6.887-9.493 6.887zm65.145-27.8c-5.145 0-9.488-3.153-9.488-6.888 0-3.73 4.343-6.882 9.488-6.882 5.144 0 9.492 3.152 9.492 6.882 0 3.735-4.348 6.891-9.492 6.891zm-43.653-56.907l53.145-13.11v13.126l-53.144 13.109zM42.984 112.723c9.891 0 17.961-6.965 18.356-15.653.023-.215.035-.433.035-.656v-40.93l40.117-9.894v13.32a20.426 20.426 0 00-6.39-1.039c-10.145 0-18.395 7.316-18.395 16.309 0 8.992 8.25 16.308 18.395 16.308 9.89 0 17.96-6.965 18.351-15.652a6.03 6.03 0 00.04-.656V17.547a6.004 6.004 0 00-7.438-5.824L53.94 24.578a6.003 6.003 0 00-4.566 5.824v50.743a20.292 20.292 0 00-6.39-1.036c-10.141 0-18.391 7.317-18.391 16.305 0 8.992 8.25 16.309 18.39 16.309zm52.118-34.235c-3.77 0-6.395-2.27-6.395-4.308 0-2.035 2.625-4.309 6.395-4.309 3.765 0 6.39 2.274 6.39 4.309 0 2.039-2.625 4.308-6.39 4.308zM61.375 35.102l40.117-9.895v8.023l-40.117 9.903zm-18.39 57.007c3.765 0 6.39 2.27 6.39 4.305 0 2.04-2.625 4.309-6.39 4.309s-6.391-2.27-6.391-4.309c0-2.035 2.625-4.305 6.39-4.305zM249.68 60.09c0-11.278-9.14-20.422-20.418-20.422-11.278 0-20.418 9.14-20.418 20.418 0 11.277 9.14 20.422 20.418 20.422 11.27-.012 20.406-9.149 20.418-20.418zm-20.418 8.418a8.417 8.417 0 01-8.418-8.422 8.419 8.419 0 118.418 8.422zm202.226 300.265c-11.277 0-20.422 9.141-20.422 20.418s9.141 20.422 20.418 20.422 20.422-9.144 20.422-20.422c-.015-11.27-9.148-20.402-20.418-20.418zm0 28.836a8.415 8.415 0 01-8.422-8.418 8.42 8.42 0 018.422-8.418 8.419 8.419 0 018.418 8.418c-.008 4.649-3.773 8.414-8.418 8.418zm0-156.445c-11.277 0-20.422 9.14-20.422 20.418 0 11.277 9.141 20.422 20.418 20.422s20.422-9.145 20.422-20.418c-.011-11.273-9.148-20.41-20.418-20.422zm0 28.84a8.42 8.42 0 118.418-8.418 8.434 8.434 0 01-8.418 8.418zM106.297 129.016c0 11.277 9.14 20.422 20.418 20.422s20.422-9.141 20.422-20.418c0-11.278-9.145-20.422-20.422-20.422-11.27.015-20.403 9.148-20.418 20.418zm28.84 0a8.42 8.42 0 11-8.422-8.418c4.648.007 8.414 3.773 8.418 8.418zm284.801-74.161h5.55v5.547a6 6 0 0012 0v-5.547h5.543c3.317 0 6-2.687 6-6 0-3.316-2.683-6-6-6h-5.547v-5.55a6.001 6.001 0 00-12 0v5.55h-5.546a6 6 0 000 12zm-195.973 91.711c3.312 0 6-2.687 6-6v-5.55h5.55a6 6 0 000-12h-5.55v-5.547c0-3.313-2.688-6-6-6s-6 2.687-6 6v5.547h-5.55a6 6 0 000 12h5.55v5.55a6 6 0 006 6zm197.098 184.536c0-3.313-2.684-6-6-6h-5.547v-5.547c0-3.317-2.688-6-6-6s-6 2.683-6 6v5.547h-5.551a6.001 6.001 0 000 12h5.55v5.546c0 3.317 2.688 6 6 6s6-2.683 6-6v-5.546h5.548a6 6 0 006-6zm45.07-140.231h-5.547v-5.55c0-3.313-2.688-6-6-6-3.316 0-6 2.687-6 6v5.55h-5.555c-3.312 0-6 2.688-6 6s2.688 6 6 6h5.551v5.55c0 3.313 2.688 6 6 6s6-2.687 6-6v-5.55h5.55a6.001 6.001 0 000-12zM299.781 35.098c3.317 0 6-2.688 6-6v-5.551h5.551c3.316 0 6-2.684 6-6 0-3.313-2.684-6-6-6h-5.55V6c0-3.313-2.684-6-6-6-3.313 0-6 2.688-6 6v5.547h-5.548c-3.316 0-6 2.687-6 6 0 3.316 2.684 6 6 6h5.547v5.55c0 3.313 2.688 6 6 6zm0 0" fill="#fff"/></svg>