<svg xmlns="http://www.w3.org/2000/svg" viewBox="0 0 512 512"><path d="M509.07 2.995a10.07 10.07 0 00-7.069-2.93c-2.63 0-5.209 1.07-7.069 2.93a10.075 10.075 0 00-2.93 7.069c0 2.63 1.07 5.209 2.93 7.068a10.033 10.033 0 007.069 2.931c2.63 0 5.209-1.06 7.069-2.931a10.028 10.028 0 002.93-7.068c0-2.629-1.06-5.209-2.93-7.069zM389.954 165.014h-37.063a43.255 43.255 0 007.028-23.674c0-24.003-19.528-43.531-43.531-43.531-15.915 0-29.856 8.59-37.449 21.373-6.303-5.03-14.281-8.048-22.954-8.048s-16.65 3.018-22.954 8.048c-7.592-12.783-21.533-21.373-37.449-21.373-24.003 0-43.531 19.528-43.531 43.531 0 8.725 2.59 16.852 7.028 23.673h-37.062c-13.243 0-24.016 10.773-24.016 24.017v34.959c0 8.866 4.832 16.619 11.999 20.78v164.21c0 18.751 15.255 34.006 34.007 34.006h223.957c18.751 0 34.006-15.255 34.006-34.006V244.77c7.166-4.161 11.999-11.914 11.999-20.78v-34.959c.001-13.243-10.773-24.017-24.015-24.017zm-97.099-23.673c0-12.977 10.557-23.533 23.534-23.533 12.977 0 23.534 10.558 23.534 23.534s-10.557 23.533-23.534 23.533h-23.534v-23.534zm10.269 43.671l30.366 53.511-7.151-1.92a10 10 0 00-12.251 7.073l-1.749 6.534-36.672-65.199h27.457zm-47.137-53.879c9.303 0 16.871 7.567 16.871 16.87s-7.568 16.871-16.871 16.871-16.871-7.568-16.871-16.871 7.567-16.87 16.871-16.87zm-18.772 53.879l-30.608 53.492-1.814-6.781a10 10 0 00-12.251-7.073l-7.081 1.9 23.691-41.538h28.063zm-41.631-67.204c12.977 0 23.534 10.557 23.534 23.533v23.534h-23.534c-12.977 0-23.534-10.558-23.534-23.534s10.558-23.533 23.534-23.533zm-77.583 106.181v-34.958a4.024 4.024 0 014.019-4.019h64.11l-24.521 42.996H122.02a4.024 4.024 0 01-4.019-4.019zm155.983 198.999H144.007c-7.724 0-14.008-6.284-14.008-14.009V248.006h26.635c.118.175.217.358.347.526a10 10 0 0010.507 3.548l20.571-5.52 5.504 20.576a10 10 0 0018.338 2.383l6.087-10.639v101.116c0 5.521 4.477 9.999 9.999 9.999s9.999-4.478 9.999-9.999V248.595h35.996v174.393zm-38.666-194.391l21.14-36.945 20.78 36.945h-41.92zm146.655 180.382c0 7.724-6.284 14.009-14.009 14.009h-73.982V258.369l12.958 23.039a9.998 9.998 0 0018.374-2.318l5.504-20.576 20.572 5.52a9.999 9.999 0 0011.289-14.593l-.815-1.436h20.109v160.974zm11.999-184.989a4.024 4.024 0 01-4.019 4.019h-39.438l-24.398-42.996h63.836a4.022 4.022 0 014.019 4.018v34.959z" fill="#fff"/><path d="M235.059 389.415a10.065 10.065 0 00-7.069-2.92c-2.63 0-5.209 1.06-7.069 2.92a10.08 10.08 0 00-2.93 7.079c0 2.63 1.07 5.209 2.93 7.069a10.08 10.08 0 007.069 2.93c2.63 0 5.209-1.07 7.069-2.93 1.86-1.87 2.93-4.44 2.93-7.069a10.107 10.107 0 00-2.93-7.079zM482.825 29.248c-3.904-3.904-10.236-3.904-14.141 0l-91.782 91.784c-3.904 3.906-3.904 10.237 0 14.142 1.953 1.952 4.512 2.929 7.07 2.929s5.118-.977 7.07-2.929l91.783-91.784c3.905-3.905 3.905-10.236 0-14.142zM100.073 87.951L43.578 31.457c-3.905-3.904-10.236-3.904-14.142 0-3.905 3.905-3.905 10.236 0 14.142l56.495 56.494c1.953 1.952 4.512 2.929 7.07 2.929s5.118-.977 7.07-2.929c3.906-3.905 3.906-10.236.002-14.142zM95.53 417.46c-3.904-3.904-10.235-3.904-14.141 0L3.941 494.909c-3.905 3.905-3.905 10.236 0 14.142 1.953 1.952 4.512 2.929 7.07 2.929s5.118-.977 7.07-2.929l77.449-77.449c3.905-3.905 3.905-10.236 0-14.142zm388.488 52.436l-49.919-49.919c-3.905-3.904-10.236-3.904-14.141 0-3.905 3.905-3.905 10.236 0 14.142l49.919 49.919c1.953 1.952 4.512 2.929 7.07 2.929s5.118-.977 7.07-2.929c3.906-3.905 3.906-10.236.001-14.142zM66.493 246.006H9.999c-5.522 0-9.999 4.478-9.999 9.999 0 5.521 4.477 9.999 9.999 9.999h56.494c5.522 0 9.999-4.477 9.999-9.999 0-5.521-4.476-9.999-9.999-9.999zm435.455 0h-57.036c-5.522 0-9.999 4.478-9.999 9.999 0 5.521 4.477 9.999 9.999 9.999h57.036c5.522 0 9.999-4.477 9.999-9.999 0-5.521-4.476-9.999-9.999-9.999zM255.987.021c-5.522 0-9.999 4.478-9.999 9.999v76.659c0 5.521 4.477 9.999 9.999 9.999s9.999-4.478 9.999-9.999v-76.66c-.001-5.521-4.477-9.998-9.999-9.998zm0 453.736c-5.522 0-9.999 4.478-9.999 9.999v38.225c0 5.521 4.477 9.999 9.999 9.999s9.999-4.478 9.999-9.999v-38.225c-.001-5.523-4.477-9.999-9.999-9.999zm245.974-99.882h-6.858c-5.522 0-9.999 4.478-9.999 9.999s4.477 9.999 9.999 9.999h6.858c5.522 0 9.999-4.478 9.999-9.999s-4.476-9.999-9.999-9.999zm-48.516 0h-6.858c-5.522 0-9.999 4.478-9.999 9.999s4.477 9.999 9.999 9.999h6.858c5.522 0 9.999-4.478 9.999-9.999s-4.476-9.999-9.999-9.999zm20.829 20.828c-5.522 0-9.999 4.478-9.999 9.999v6.858c0 5.521 4.477 9.999 9.999 9.999s9.999-4.478 9.999-9.999v-6.858c0-5.522-4.477-9.999-9.999-9.999zm0-48.515c-5.522 0-9.999 4.478-9.999 9.999v6.858c0 5.521 4.477 9.999 9.999 9.999s9.999-4.477 9.999-9.999v-6.858c0-5.522-4.477-9.999-9.999-9.999zM66.445 159.03h-6.858c-5.522 0-9.999 4.478-9.999 9.999 0 5.521 4.477 9.999 9.999 9.999h6.858c5.522 0 9.999-4.477 9.999-9.999 0-5.521-4.476-9.999-9.999-9.999zm-48.515 0h-6.858c-5.522 0-9.999 4.478-9.999 9.999 0 5.521 4.477 9.999 9.999 9.999h6.858c5.522 0 9.999-4.477 9.999-9.999 0-5.521-4.476-9.999-9.999-9.999zm20.829 20.829c-5.522 0-9.999 4.478-9.999 9.999v6.857c0 5.521 4.477 9.999 9.999 9.999s9.999-4.478 9.999-9.999v-6.857c0-5.523-4.477-9.999-9.999-9.999zm0-48.516c-5.522 0-9.999 4.478-9.999 9.999v6.857c0 5.521 4.477 9.999 9.999 9.999s9.999-4.478 9.999-9.999v-6.857c0-5.522-4.477-9.999-9.999-9.999zM373.64 19.696c-16.54 0-29.997 13.457-29.997 29.997S357.1 79.69 373.64 79.69s29.997-13.457 29.997-29.997-13.456-29.997-29.997-29.997zm0 39.996c-5.513 0-9.999-4.486-9.999-9.999s4.486-9.999 9.999-9.999 9.999 4.486 9.999 9.999-4.485 9.999-9.999 9.999zM43.019 333.877c-16.54 0-29.997 13.457-29.997 29.997s13.457 29.997 29.997 29.997 29.997-13.457 29.997-29.997-13.457-29.997-29.997-29.997zm0 39.996c-5.513 0-9.999-4.486-9.999-9.999s4.486-9.999 9.999-9.999 9.999 4.486 9.999 9.999-4.486 9.999-9.999 9.999zm337.695 92.815a10.07 10.07 0 00-7.069-2.93c-2.64 0-5.209 1.069-7.079 2.93a10.062 10.062 0 00-2.92 7.069c0 2.63 1.06 5.198 2.92 7.068 1.87 1.86 4.45 2.931 7.079 2.931s5.209-1.07 7.069-2.931a10.09 10.09 0 002.93-7.068 10.08 10.08 0 00-2.93-7.069zm-215.648 0a10.07 10.07 0 00-7.069-2.93c-2.63 0-5.209 1.069-7.069 2.93a10.056 10.056 0 00-2.93 7.069c0 2.63 1.07 5.198 2.93 7.068a10.076 10.076 0 007.069 2.931c2.63 0 5.209-1.07 7.069-2.931a10.09 10.09 0 002.93-7.068c0-2.64-1.07-5.21-2.93-7.069zm6.888-423.777a10.08 10.08 0 00-7.069-2.93c-2.63 0-5.209 1.07-7.069 2.93s-2.93 4.44-2.93 7.069c0 2.64 1.07 5.209 2.93 7.069 1.86 1.87 4.44 2.93 7.069 2.93 2.63 0 5.209-1.061 7.069-2.93a10.06 10.06 0 002.93-7.069c0-2.629-1.07-5.199-2.93-7.069zm308.599 113.038a10.033 10.033 0 00-7.069-2.93 10.03 10.03 0 00-7.069 2.93 10.06 10.06 0 00-2.93 7.069c0 2.63 1.07 5.199 2.93 7.069a10.08 10.08 0 007.069 2.93c2.63 0 5.209-1.07 7.069-2.93 1.86-1.87 2.93-4.44 2.93-7.069 0-2.639-1.07-5.209-2.93-7.069z" fill="#fff"/></svg>