<svg xmlns="http://www.w3.org/2000/svg" width="29" height="31"><path d="M22.93 17.4l-3.21-1.2-1.32-1.5A13.466 13.466 0 0020.62 7c0-4.3-2.38-7-6.07-7S8.48 2.7 8.48 7a13.257 13.257 0 002.15 7.6c0 .1-.01.1-.02.1l-1.33 1.5-3.21 1.2C5.58 17.6 0 19.5 0 29.5a.624.624 0 00.61.6h4.14v.3a.624.624 0 00.61.6h18.29a.622.622 0 00.6-.6v-.3h4.14a.624.624 0 00.61-.6c0-10-5.58-11.9-6.07-12.1zM9.7 7c0-3.6 1.86-5.8 4.85-5.8S19.4 3.4 19.4 7c0 4.1-1.85 8.6-4.85 8.6S9.7 11.1 9.7 7zm14.55 21.9v-5.1a.605.605 0 00-1.21 0v6H5.96v-6a.605.605 0 00-1.21 0v5.1H1.22c.22-8.7 5-10.3 5.21-10.3h.04l3.38-1.3a.368.368 0 00.25-.2l1.34-1.5a4.409 4.409 0 003.11 1.2 4.287 4.287 0 003.03-1.2l1.32 1.5a.368.368 0 00.25.2l3.38 1.3h.04c.06 0 4.99 1.5 5.21 10.3h-3.53z" fill="#6b0769" fill-rule="evenodd"/></svg>