<svg xmlns="http://www.w3.org/2000/svg" width="1920" height="125.22" viewBox="0 0 1920 125.22">
  <defs>
    <style>
      .cls-1 {
        fill: #fff;
        fill-rule: evenodd;
      }
    </style>
  </defs>
  <path id="Rectangle_9_copy_5" data-name="Rectangle 9 copy 5" class="cls-1" d="M-0.13,3492.01s94.235-79.94,184.831-79.94,76.905,80.54,233.887,87.43c102.584,4.5,69.312-45.07,179.944-34.18,78.067,7.68,205.548,57.89,281.174,54.75,99.334-4.12,233.864-6.07,337.364-27.29,76.78-15.73,127.89-64.43,182.69-26.41,23.64,16.4,84.77,18.37,133.98,9.51,64.89-11.69,62.57-51.68,134.61-63.63,168.93-28.01,251.65,90.47,251.65,90.47V3395H0Zm673.273-217.57" transform="translate(0 -3395)"/>
</svg>
