<svg xmlns="http://www.w3.org/2000/svg" width="27" height="25" viewBox="0 0 27 25">
  <defs>
    <style>
      .cls-1 {
        fill: #3a0f54;
      }
    </style>
  </defs>
  <title>param-2</title>
  <g id="Слой_2" data-name="Слой 2">
    <g id="Calque_2" data-name="Calque 2">
      <g>
        <path class="cls-1" d="M10.11,12.25l-.63,1.13a5.51,5.51,0,1,1-3.61-.61l-.22-1.28a6.81,6.81,0,1,0,4.46.76Z"/>
        <path class="cls-1" d="M22.53,16.06a4.45,4.45,0,0,0-3.19,1.35A18.07,18.07,0,0,1,17.73,16L22,11.52h.59a.65.65,0,1,0,0-1.3H18.4a.65.65,0,0,0,0,1.3h1.81L16.89,15a8.61,8.61,0,0,1-1.24-2.31C14.43,9.43,10.72,7.06,9.5,6.35l.55-3.23c.29-1.89,1.32-1.84,1.42-1.82H15A.65.65,0,1,0,15,0H11.61a2.33,2.33,0,0,0-1.28.27A3.33,3.33,0,0,0,8.77,2.91L6.2,18.07a.65.65,0,0,0,.53.75h.11a.63.63,0,0,0,.63-.53L9.26,7.73c1.38.85,4.23,2.87,5.17,5.4a10.26,10.26,0,0,0,2,3.31h0a17.82,17.82,0,0,0,2.17,2,4.47,4.47,0,1,0,4-2.4Zm0,7.65a3.18,3.18,0,0,1-3.17-3.18,3.12,3.12,0,0,1,.26-1.26L21,20.32l1,.78a.66.66,0,0,0,.38.12A.65.65,0,0,0,23,21a.63.63,0,0,0-.13-.9l-1.05-.78c-.52-.38-1-.73-1.43-1.07a3.17,3.17,0,1,1,2.16,5.5Z"/>
      </g>
    </g>
  </g>
</svg>
