<svg height="480pt" viewBox="0 0 480.36214 480" width="480pt" xmlns="http://www.w3.org/2000/svg"><path d="m312.289062 80.179688c-41.386718-.050782-81.3125 15.304687-112 43.074218-35.375-45.320312-99.316406-56.5-147.964843-25.863281-48.652344 30.632813-66.207031 93.125-40.625 144.613281 25.582031 51.484375 85.992187 75.238282 139.789062 54.96875 2.269531 7.449219 5.074219 14.722656 8.386719 21.769532-32.71875 21.539062-47.246094 62.117187-35.636719 99.527343 11.609375 37.40625 46.558594 62.632813 85.71875 61.867188 39.164063-.765625 73.097657-27.335938 83.238281-65.171875 61.90625 7.132812 122.671876-20.597656 157.851563-72.035156 35.175781-51.4375 38.980469-118.125 9.878906-173.230469-29.101562-55.105469-86.320312-89.566407-148.636719-89.519531zm-296 112c-.066406-41.289063 26.320313-77.976563 65.484376-91.050782 39.164062-13.074218 82.300781.40625 107.050781 33.453125-28.671875 30.875-44.582031 71.464844-44.535157 113.597657.023438 11.128906 1.148438 22.222656 3.351563 33.128906-29.539063 11.839844-63.035156 8.226562-89.371094-9.644532-26.335937-17.867187-42.066406-47.65625-41.980469-79.484374zm192 272c-39.765624 0-72-32.234376-72-72 0-39.761719 32.234376-72 72-72 39.765626 0 72 32.238281 72 72-.042968 39.746093-32.253906 71.957031-72 72zm104-64c-5.464843-.039063-10.921874-.371094-16.351562-1 .183594-2.3125.351562-4.636719.351562-7 0-29.503907-14.792968-57.046876-39.386718-73.347657-24.597656-16.300781-55.726563-19.1875-82.902344-7.691406-3.976562-8.632813-7.117188-17.625-9.375-26.855469-2.875-11.820312-4.332031-23.941406-4.335938-36.105468 0-83.945313 68.054688-152 152-152 83.949219 0 152 68.054687 152 152 0 83.949218-68.050781 152-152 152zm0 0" fill="#fff"/><path d="m72.289062 360.179688c0-4.417969-3.582031-8-8-8-4.417968 0-8 3.582031-8 8 0 13.257812-10.746093 24-24 24-4.417968 0-8 3.582031-8 8 0 4.417968 3.582032 8 8 8 13.253907 0 24 10.746093 24 24 0 4.417968 3.582032 8 8 8 4.417969 0 8-3.582032 8-8 0-13.253907 10.746094-24 24-24 4.417969 0 8-3.582032 8-8 0-4.417969-3.582031-8-8-8-13.253906 0-24-10.742188-24-24zm-8 40.25c-2.328124-3.140626-5.109374-5.917969-8.246093-8.25 3.136719-2.328126 5.917969-5.109376 8.246093-8.246094 2.332032 3.136718 5.109376 5.917968 8.25 8.246094-3.140624 2.332031-5.917968 5.109374-8.25 8.25zm0 0" fill="#fff"/><path d="m392.289062 72.179688c0 4.417968 3.582032 8 8 8 4.417969 0 8-3.582032 8-8 0-13.253907 10.746094-24 24-24 4.417969 0 8-3.582032 8-8 0-4.417969-3.582031-8-8-8-13.253906 0-24-10.742188-24-24 0-4.417969-3.582031-8-8-8-4.417968 0-8 3.582031-8 8 0 13.257812-10.746093 24-24 24-4.417968 0-8 3.582031-8 8 0 4.417968 3.582032 8 8 8 13.253907 0 24 10.746093 24 24zm8-40.246094c2.332032 3.136718 5.109376 5.917968 8.25 8.246094-3.140624 2.332031-5.917968 5.109374-8.25 8.25-2.328124-3.140626-5.109374-5.917969-8.246093-8.25 3.136719-2.328126 5.917969-5.109376 8.246093-8.246094zm0 0" fill="#fff"/><path d="m416.289062 248.179688c-13.253906 0-24-10.742188-24-24 0-4.417969-3.582031-8-8-8-4.417968 0-8 3.582031-8 8 0 13.257812-10.746093 24-24 24-4.417968 0-8 3.582031-8 8 0 4.417968 3.582032 8 8 8 13.253907 0 24 10.746093 24 24 0 4.417968 3.582032 8 8 8 4.417969 0 8-3.582032 8-8 0-13.253907 10.746094-24 24-24 4.417969 0 8-3.582032 8-8 0-4.417969-3.582031-8-8-8zm-32 16.25c-2.328124-3.140626-5.109374-5.917969-8.246093-8.25 3.136719-2.328126 5.917969-5.109376 8.246093-8.246094 2.332032 3.136718 5.109376 5.917968 8.25 8.246094-3.140624 2.332031-5.917968 5.109374-8.25 8.25zm0 0" fill="#fff"/><path d="m328.289062 184.179688c0-4.417969-3.582031-8-8-8-13.253906 0-24-10.742188-24-24 0-4.417969-3.582031-8-8-8-4.417968 0-8 3.582031-8 8 0 13.257812-10.746093 24-24 24-4.417968 0-8 3.582031-8 8 0 4.417968 3.582032 8 8 8 13.253907 0 24 10.746093 24 24 0 4.417968 3.582032 8 8 8 4.417969 0 8-3.582032 8-8 0-13.253907 10.746094-24 24-24 4.417969 0 8-3.582032 8-8zm-40 8.25c-2.328124-3.140626-5.109374-5.917969-8.246093-8.25 3.136719-2.328126 5.917969-5.109376 8.246093-8.246094 2.332032 3.136718 5.109376 5.917968 8.25 8.246094-3.140624 2.332031-5.917968 5.109374-8.25 8.25zm0 0" fill="#fff"/><path d="m96.289062 328.179688h16v16h-16zm0 0" fill="#fff"/><path d="m16.289062 440.179688h16v16h-16zm0 0" fill="#fff"/><path d="m472.289062 416.179688c0-13.253907-10.746093-24-24-24-13.253906 0-24 10.746093-24 24 0 13.257812 10.746094 24 24 24 13.253907 0 24-10.742188 24-24zm-32 0c0-4.417969 3.582032-8 8-8 4.417969 0 8 3.582031 8 8 0 4.417968-3.582031 8-8 8-4.417968 0-8-3.582032-8-8zm0 0" fill="#fff"/><path d="m240.289062 56.179688c0-17.671876-14.328124-32-32-32-17.671874 0-32 14.328124-32 32 0 17.675781 14.328126 32 32 32 17.671876 0 32-14.324219 32-32zm-48 0c0-8.835938 7.164063-16 16-16 8.835938 0 16 7.164062 16 16 0 8.839843-7.164062 16-16 16-8.835937 0-16-7.160157-16-16zm0 0" fill="#fff"/><path d="m288.289062 40.179688h16v16h-16zm0 0" fill="#fff"/><path d="m320.289062 336.179688h16v16h-16zm0 0" fill="#fff"/><path d="m368.289062 440.179688h16v16h-16zm0 0" fill="#fff"/><path d="m96.289062 208.179688h16v16h-16zm0 0" fill="#fff"/><path d="m32.289062 208.902344 16-1.441406c-.039062-.382813-3.199218-38.457032 17.878907-61.601563 12.09375-12.28125 28.914062-18.730469 46.121093-17.679687v-16c-21.730468-1.148438-42.886718 7.214843-57.960937 22.914062-25.824219 28.289062-22.175781 71.96875-22.039063 73.808594zm0 0" fill="#fff"/><path d="m320.289062 112.179688v16c4 0 97.242188 1.707031 112.089844 113.058593l15.855469-2.113281c-16.746094-125.488281-126.832031-126.945312-127.945313-126.945312zm0 0" fill="#fff"/></svg>