<svg xmlns="http://www.w3.org/2000/svg" width="22" height="21.99" viewBox="0 0 22 21.99">
  <defs>
    <style>
      .cls-1 {
        fill: #3a0f54;
      }
    </style>
  </defs>
  <title>param-3</title>
  <g id="Слой_2" data-name="Слой 2">
    <g id="Calque_2" data-name="Calque 2">
      <g>
        <path class="cls-1" d="M11,0A11,11,0,1,0,22,11,11,11,0,0,0,11,0Zm.65,20.66V18.47a.65.65,0,0,0-1.3,0v2.19a9.71,9.71,0,0,1-9-9H3.47A.66.66,0,0,0,4.13,11a.67.67,0,0,0-.66-.66H1.33a9.71,9.71,0,0,1,9-9V3.52a.65.65,0,1,0,1.3,0V1.33a9.71,9.71,0,0,1,9,9H18.42a.67.67,0,0,0-.66.66.66.66,0,0,0,.66.65h2.25A9.71,9.71,0,0,1,11.65,20.66Z"/>
        <polygon class="cls-1" points="11.01 11.08 8 8.22 7.1 9.18 11.04 12.9 16.82 7.12 15.9 6.19 11.01 11.08"/>
      </g>
    </g>
  </g>
</svg>
