<svg id="Capa_1" enable-background="new 0 0 512 512" height="512" viewBox="0 0 512 512" width="512" xmlns="http://www.w3.org/2000/svg"><g id="XMLID_1847_"><g id="XMLID_265_"><path id="XMLID_603_" d="m512 10.01c0-5.522-4.477-10-10-10h-492c-5.523 0-10 4.478-10 10v357 125.344c0 2.652 1.054 5.196 2.929 7.071 16.754 16.754 44.014 16.754 60.769 0 8.956-8.957 23.529-8.957 32.485 0 8.377 8.377 19.38 12.564 30.384 12.564s22.007-4.188 30.384-12.564c2.811-2.811 3.69-7.018 2.24-10.719l-38.568-98.465c6.735-5.506 11.044-13.874 11.044-23.232 0-10.326-5.244-19.449-13.208-24.848 35.691-46.511 55.208-103.678 55.208-162.562v-53.713c32.926-9.216 62.152-29.413 82.397-57.528 20.219 28.078 49.396 48.258 82.27 57.491v53.75c0 58.884 19.518 116.052 55.209 162.562-7.964 5.399-13.209 14.522-13.209 24.848 0 9.357 4.308 17.726 11.044 23.232l-38.568 98.465c-1.45 3.701-.57 7.908 2.24 10.719 16.754 16.754 44.014 16.754 60.769 0 8.956-8.957 23.529-8.957 32.485 0 8.377 8.377 19.38 12.564 30.384 12.564s22.007-4.188 30.384-12.564c1.875-1.875 2.929-4.419 2.929-7.071v-482.344zm-101.667 367c-5.514 0-10-4.486-10-10s4.486-10 10-10h71.667c5.514 0 10 4.486 10 10s-4.486 10-10 10zm71.667-40h-20.612c-20.14-44.428-30.768-93.456-30.768-142.213v-72.391c23.447-8.504 44.594-22.703 61.379-41.403v257.727c-3.129-1.11-6.493-1.72-9.999-1.72zm-380.333 20c5.514 0 10 4.486 10 10s-4.486 10-10 10h-71.667c-5.514 0-10-4.486-10-10s4.486-10 10-10zm-71.667-20c-3.506 0-6.87.61-10 1.72v-257.868c16.776 18.736 37.924 32.968 61.379 41.498v72.437c0 48.757-10.627 97.784-30.768 142.213zm19.556 148.272c-8.035 8.034-20.591 8.86-29.556 2.479v-92.471c3.13 1.11 6.494 1.72 10 1.72h19.114l18.574 77.478c-6.642 1.963-12.9 5.561-18.132 10.794zm88.291 3.771c-8.753 4.931-20.079 3.674-27.522-3.771-6.319-6.318-14.132-10.25-22.311-11.803l-18.333-76.469h31.986c.043 0 .084-.003.127-.003zm15.82-309.453c0 57.476-20.094 113.187-56.662 157.41h-24.555c18.96-44.789 28.929-93.628 28.929-142.213v-66.681c10.29 2.208 20.878 3.374 31.621 3.374 6.966 0 13.868-.491 20.667-1.432zm-20.667-68.111c-41.087 0-79.646-19.358-104.354-51.479h54.354c5.523 0 10-4.478 10-10s-4.477-10-10-10h-63v-20h472v20h-319c-5.523 0-10 4.478-10 10s4.477 10 10 10h64.354c-24.708 32.121-63.267 51.479-104.354 51.479zm141.764-51.479h208.726c-24.708 32.124-63.274 51.479-104.363 51.479s-79.654-19.355-104.363-51.479zm83.569 70.028c6.84.953 13.784 1.451 20.793 1.451 10.698 0 21.243-1.156 31.494-3.346v66.653c0 48.584 9.97 97.424 28.929 142.213h-24.555c-36.568-44.224-56.662-99.935-56.662-157.41v-49.561zm43.343 355.244c-7.445 7.443-18.77 8.7-27.523 3.77l36.054-92.045c.042 0 .084.003.127.003h31.986l-18.333 76.469c-8.18 1.552-15.993 5.485-22.311 11.803zm60.769 0c-5.233-5.233-11.491-8.831-18.133-10.795l18.575-77.478h19.113c3.506 0 6.87-.61 10-1.72v92.472c-8.964 6.382-21.521 5.557-29.555-2.479z" fill="#fff"/><path id="XMLID_626_" d="m128 40.01c-2.63 0-5.21 1.069-7.07 2.93-1.86 1.86-2.93 4.44-2.93 7.07s1.07 5.21 2.93 7.069c1.86 1.86 4.44 2.931 7.07 2.931s5.21-1.07 7.07-2.931c1.86-1.859 2.93-4.439 2.93-7.069s-1.07-5.21-2.93-7.07-4.44-2.93-7.07-2.93z" fill="#fff"/></g></g></svg>