<svg xmlns="http://www.w3.org/2000/svg" width="25" height="29" viewBox="0 0 25 29">
  <defs>
    <style>
      .cls-1 {
        fill: #6b0769;
        fill-rule: evenodd;
      }
    </style>
  </defs>
  <path class="cls-1" d="M1115.86,16997.7l-0.01-.1c-0.22-.3-0.48-0.6-0.75-1a16.256,16.256,0,0,0-4.84-4.4,0.455,0.455,0,0,0-.36-0.1,4.429,4.429,0,0,0-1.86.6,1.666,1.666,0,0,0-.66.7c-0.11.1-.24,0.3-0.41,0.5a1.905,1.905,0,0,1-1.4.9,1.388,1.388,0,0,1-.94-0.4,23.707,23.707,0,0,1-3.5-3.8c-0.01-.1-0.02-0.1-0.03-0.1h-0.05a27.819,27.819,0,0,1-2.87-4.4c-0.17-.6-0.43-1.5,1.06-2.2,0.22-.1.43-0.2,0.61-0.3h0.03a2.187,2.187,0,0,0,.84-0.4c0.01-.1,1.14-1.4,1-2.1a16.313,16.313,0,0,0-3.05-5.8,5.847,5.847,0,0,0-.82-1,0.834,0.834,0,0,0-.65-0.3l-1.58.1a0.563,0.563,0,0,0-.4.1,8.658,8.658,0,0,0-1.2.9c-0.09.1-.19,0.1-0.28,0.2a8.07,8.07,0,0,0-2.64,4.2,4.554,4.554,0,0,0-.1,1.1,7.224,7.224,0,0,0,.08.8c0.01,0,.01.1,0.02,0.1a35.673,35.673,0,0,0,5.93,11.9l0.11,0.1c0.01,0.1.02,0.1,0.03,0.1h0.04l0.09,0.2a35.149,35.149,0,0,0,9.96,8.7h0.12c0.23,0.1.47,0.2,0.73,0.3a4.034,4.034,0,0,0,1.08.2h0.27a8.2,8.2,0,0,0,4.37-1.6c0.11-.1.22-0.1,0.31-0.2,0.43-.3.97-0.8,1.12-0.9a1.256,1.256,0,0,0,.25-0.4l0.45-1.5A0.759,0.759,0,0,0,1115.86,16997.7Zm-19.55-22.4,0.76-.1a5.518,5.518,0,0,0,.64.8,15.77,15.77,0,0,1,2.79,5.2,8.107,8.107,0,0,1-.42.8l-0.48.4c-0.05,0-.1.1-0.15,0.1h-0.03a3.318,3.318,0,0,0-.73.3,2.872,2.872,0,0,0-1.66,3.7h0.03a22.909,22.909,0,0,0,3.04,4.7c0.01,0,.01,0,0.02.1h0.03a24.585,24.585,0,0,0,3.74,4.1c0.02,0,.04,0,0.06.1a3.837,3.837,0,0,0,1.62.5,2.961,2.961,0,0,0,2.33-1.3,3.434,3.434,0,0,0,.46-0.6l0.44-.4a4.679,4.679,0,0,1,1.03-.3,13.7,13.7,0,0,1,4.3,4,3.661,3.661,0,0,1,.61.8l-0.29.9-0.37.6a3.7,3.7,0,0,1-.66.5c-0.09.1-.17,0.1-0.27,0.2a7.087,7.087,0,0,1-3.69,1.4h-0.21c-0.27-.1-0.55-0.1-0.81-0.2a1.223,1.223,0,0,1-.57-0.2h-0.04a34.85,34.85,0,0,1-9.57-8.4l-0.1-.1c-0.01,0-.02-0.1-0.03-0.1h-0.03l-0.1-.1a34.519,34.519,0,0,1-5.7-11.5h-0.01a4.087,4.087,0,0,1-.07-0.6,4.552,4.552,0,0,1,.07-0.9,7.264,7.264,0,0,1,2.26-3.5,0.415,0.415,0,0,0,.25-0.2c0.26-.2.62-0.4,0.85-0.6Z" transform="translate(-1091 -16974)"/>
</svg>
