<svg height="479pt" viewBox="-3 0 479 479.266" width="479pt" xmlns="http://www.w3.org/2000/svg"><path d="m358.179688 461.730469v-200.085938c-.011719-9.679687-7.855469-17.523437-17.535157-17.535156h-66.757812v-47.238281c0-3.3125-2.6875-6-6-6h-168.585938c-3.316406 0-6 2.6875-6 6v47.238281h-75.632812c-9.679688.011719-17.523438 7.855469-17.535157 17.535156v200.085938c.011719 9.679687 7.855469 17.523437 17.535157 17.535156h322.976562c9.679688-.011719 17.523438-7.855469 17.535157-17.535156zm-252.878907-258.859375h156.585938v41.238281h-156.585938zm-93.167969 258.859375v-200.085938c.003907-3.054687 2.480469-5.53125 5.535157-5.535156h322.976562c3.054688.003906 5.53125 2.480469 5.535157 5.535156v200.085938c-.003907 3.054687-2.480469 5.53125-5.535157 5.535156h-322.976562c-3.054688-.003906-5.53125-2.476563-5.535157-5.535156zm0 0" fill="#fff"/><path d="m99.300781 313.316406c-33.945312 0-61.457031 27.515625-61.457031 61.457032 0 33.945312 27.515625 61.457031 61.457031 61.457031 33.941407 0 61.457031-27.515625 61.457031-61.457031-.039062-33.925782-27.53125-61.417969-61.457031-61.457032zm0 110.914063c-27.316406 0-49.457031-22.140625-49.457031-49.457031 0-27.3125 22.140625-49.457032 49.457031-49.457032 27.3125 0 49.457031 22.144532 49.457031 49.457032-.03125 27.304687-22.15625 49.429687-49.457031 49.457031zm0 0" fill="#fff"/><path d="m99.300781 347.921875c-14.832031 0-26.855469 12.023437-26.855469 26.851563 0 14.832031 12.023438 26.855468 26.855469 26.855468 14.828125-.003906 26.851563-12.023437 26.851563-26.855468-.019532-14.820313-12.03125-26.832032-26.851563-26.851563zm0 41.699219c-8.203125 0-14.855469-6.648438-14.855469-14.851563 0-8.199219 6.652344-14.851562 14.855469-14.851562 8.199219 0 14.851563 6.652343 14.851563 14.851562-.007813 8.203125-6.652344 14.847657-14.851563 14.855469zm0 0" fill="#fff"/><path d="m259.011719 313.316406c-33.941407 0-61.457031 27.515625-61.457031 61.457032 0 33.945312 27.515624 61.457031 61.457031 61.457031 33.945312 0 61.457031-27.515625 61.457031-61.457031-.039062-33.925782-27.53125-61.417969-61.457031-61.457032zm0 110.914063c-27.3125 0-49.457031-22.140625-49.457031-49.457031 0-27.3125 22.144531-49.457032 49.457031-49.457032 27.316406 0 49.457031 22.144532 49.457031 49.457032-.027344 27.304687-22.152344 49.429687-49.457031 49.457031zm0 0" fill="#fff"/><path d="m259.011719 347.921875c-14.828125 0-26.851563 12.023437-26.851563 26.851563 0 14.832031 12.023438 26.855468 26.851563 26.855468 14.832031-.003906 26.851562-12.023437 26.851562-26.855468-.015625-14.820313-12.027343-26.832032-26.851562-26.851563zm0 41.699219c-8.203125.003906-14.851563-6.648438-14.851563-14.847656 0-8.203126 6.648438-14.855469 14.851563-14.855469s14.851562 6.648437 14.851562 14.851562c-.007812 8.199219-6.652343 14.847657-14.851562 14.855469zm0 0" fill="#fff"/><path d="m134.347656 296.480469h89.617188c3.3125 0 6-2.6875 6-6s-2.6875-6-6-6h-89.617188c-3.3125 0-6 2.6875-6 6s2.6875 6 6 6zm0 0" fill="#fff"/><path d="m336.3125 89.351562v65.601563c-2.996094-1.300781-6.226562-1.972656-9.492188-1.96875-11.847656 0-21.488281 8.472656-21.488281 18.886719 0 10.410156 9.640625 18.882812 21.488281 18.882812 11.601563 0 21.050782-8.117187 21.453126-18.226562.023437-.21875.039062-.4375.039062-.65625v-52.339844l53.144531-13.109375v20.734375c-2.996093-1.300781-6.226562-1.96875-9.492187-1.964844-11.847656 0-21.488282 8.46875-21.488282 18.882813 0 10.414062 9.640626 18.886719 21.488282 18.886719 11.601562 0 21.054687-8.121094 21.453125-18.226563.023437-.21875.039062-.4375.039062-.660156v-70.792969c0-1.84375-.847656-3.582031-2.300781-4.722656-1.453125-1.136719-3.347656-1.542969-5.136719-1.101563l-65.144531 16.074219c-2.679688.660156-4.558594 3.0625-4.5625 5.820312zm-9.492188 89.402344c-5.140624 0-9.488281-3.15625-9.488281-6.886718 0-3.730469 4.347657-6.882813 9.488281-6.882813 5.144532 0 9.492188 3.152344 9.492188 6.882813 0 3.734374-4.347656 6.886718-9.492188 6.886718zm65.144532-27.800781c-5.144532 0-9.488282-3.152344-9.488282-6.886719 0-3.730468 4.34375-6.882812 9.488282-6.882812 5.144531 0 9.492187 3.152344 9.492187 6.882812 0 3.734375-4.347656 6.890625-9.492187 6.890625zm-43.652344-56.90625 53.144531-13.109375v13.125l-53.144531 13.109375zm0 0" fill="#fff"/><path d="m42.984375 112.722656c9.890625 0 17.960937-6.964844 18.355469-15.652344.023437-.214843.035156-.433593.035156-.65625v-40.929687l40.117188-9.894531v13.320312c-2.0625-.683594-4.21875-1.035156-6.390626-1.039062-10.144531 0-18.394531 7.316406-18.394531 16.308594 0 8.992187 8.25 16.308593 18.394531 16.308593 9.890626 0 17.960938-6.964843 18.351563-15.652343.023437-.21875.039063-.4375.039063-.65625v-56.632813c0-1.84375-.847657-3.585937-2.300782-4.722656s-3.347656-1.542969-5.136718-1.101563l-52.113282 12.855469c-2.679687.660156-4.566406 3.066406-4.566406 5.824219v50.742187c-2.058594-.683593-4.21875-1.035156-6.390625-1.035156-10.140625 0-18.390625 7.316406-18.390625 16.304687 0 8.992188 8.25 16.308594 18.390625 16.308594zm52.117187-34.234375c-3.769531 0-6.394531-2.269531-6.394531-4.308593 0-2.035157 2.625-4.308594 6.394531-4.308594 3.765626 0 6.390626 2.273437 6.390626 4.308594 0 2.039062-2.625 4.308593-6.390626 4.308593zm-33.726562-43.386719 40.117188-9.894531v8.023438l-40.117188 9.902343zm-18.390625 57.007813c3.765625 0 6.390625 2.269531 6.390625 4.304687 0 2.039063-2.625 4.308594-6.390625 4.308594s-6.390625-2.269531-6.390625-4.308594c0-2.035156 2.625-4.304687 6.390625-4.304687zm0 0" fill="#fff"/><path d="m249.679688 60.089844c0-11.277344-9.140626-20.421875-20.417969-20.421875-11.277344 0-20.417969 9.140625-20.417969 20.417969 0 11.277343 9.140625 20.421874 20.417969 20.421874 11.269531-.011718 20.40625-9.148437 20.417969-20.417968zm-20.417969 8.417968c-4.652344 0-8.417969-3.769531-8.417969-8.421874 0-4.648438 3.769531-8.417969 8.417969-8.417969 4.648437 0 8.417969 3.769531 8.417969 8.421875-.003907 4.648437-3.769532 8.414062-8.417969 8.417968zm0 0" fill="#fff"/><path d="m431.488281 368.773438c-11.277343 0-20.421875 9.140624-20.421875 20.417968s9.140625 20.421875 20.417969 20.421875 20.421875-9.144531 20.421875-20.421875c-.015625-11.269531-9.148438-20.402344-20.417969-20.417968zm0 28.835937c-4.652343.003906-8.421875-3.765625-8.421875-8.417969 0-4.648437 3.769532-8.417968 8.421875-8.417968 4.648438 0 8.417969 3.769531 8.417969 8.417968-.007812 4.648438-3.773438 8.414063-8.417969 8.417969zm0 0" fill="#fff"/><path d="m431.488281 241.164062c-11.277343 0-20.421875 9.140626-20.421875 20.417969 0 11.277344 9.140625 20.421875 20.417969 20.421875s20.421875-9.144531 20.421875-20.417968c-.011719-11.273438-9.148438-20.410157-20.417969-20.421876zm0 28.839844c-4.652343 0-8.421875-3.769531-8.421875-8.421875 0-4.648437 3.769532-8.417969 8.421875-8.417969 4.648438 0 8.417969 3.769532 8.417969 8.421876-.007812 4.644531-3.773438 8.410156-8.417969 8.417968zm0 0" fill="#fff"/><path d="m106.296875 129.015625c0 11.277344 9.140625 20.421875 20.417969 20.421875s20.421875-9.140625 20.421875-20.417969c0-11.277343-9.144531-20.421875-20.421875-20.421875-11.269532.015625-20.402344 9.148438-20.417969 20.417969zm28.839844 0c0 4.652344-3.769531 8.421875-8.421875 8.421875-4.648438 0-8.417969-3.769531-8.417969-8.417969 0-4.652343 3.769531-8.421875 8.417969-8.421875 4.648437.007813 8.414062 3.773438 8.417968 8.417969zm0 0" fill="#fff"/><path d="m419.9375 54.855469h5.550781v5.546875c0 3.3125 2.683594 6 6 6 3.3125 0 6-2.6875 6-6v-5.546875h5.542969c3.316406 0 6-2.6875 6-6 0-3.316407-2.683594-6-6-6h-5.546875v-5.550781c0-3.3125-2.6875-6-6-6s-6 2.6875-6 6v5.550781h-5.546875c-3.3125 0-6 2.683593-6 6 0 3.3125 2.6875 6 6 6zm0 0" fill="#fff"/><path d="m223.964844 146.566406c3.3125 0 6-2.6875 6-6v-5.550781h5.550781c3.3125 0 6-2.683594 6-6 0-3.3125-2.6875-6-6-6h-5.550781v-5.546875c0-3.3125-2.6875-6-6-6s-6 2.6875-6 6v5.546875h-5.550782c-3.3125 0-6 2.6875-6 6 0 3.316406 2.6875 6 6 6h5.550782v5.550781c0 3.3125 2.6875 6 6 6zm0 0" fill="#fff"/><path d="m421.0625 331.101562c0-3.3125-2.683594-6-6-6h-5.546875v-5.546874c0-3.316407-2.6875-6-6-6s-6 2.683593-6 6v5.546874h-5.550781c-3.3125 0-6 2.6875-6 6s2.6875 6 6 6h5.550781v5.546876c0 3.316406 2.6875 6 6 6s6-2.683594 6-6v-5.546876h5.546875c3.316406 0 6-2.6875 6-6zm0 0" fill="#fff"/><path d="m466.132812 190.871094h-5.546874v-5.550782c0-3.3125-2.6875-6-6-6-3.316407 0-6 2.6875-6 6v5.550782h-5.554688c-3.3125 0-6 2.6875-6 6s2.6875 6 6 6h5.550781v5.550781c0 3.3125 2.6875 6 6 6s6-2.6875 6-6v-5.550781h5.550781c3.3125 0 6-2.6875 6-6s-2.6875-6-6-6zm0 0" fill="#fff"/><path d="m299.78125 35.097656c3.316406 0 6-2.6875 6-6v-5.550781h5.550781c3.316407 0 6-2.683594 6-6 0-3.3125-2.683593-6-6-6h-5.550781v-5.546875c0-3.3125-2.683594-6-6-6-3.3125 0-6 2.6875-6 6v5.546875h-5.546875c-3.316406 0-6 2.6875-6 6 0 3.316406 2.683594 6 6 6h5.546875v5.550781c0 3.3125 2.6875 6 6 6zm0 0" fill="#fff"/></svg>